<?xml version="1.0" encoding="utf-8"?>
<!-- Generator: Adobe Illustrator 24.0.0, SVG Export Plug-In . SVG Version: 6.00 Build 0)  -->
<svg version="1.1" id="Layer_1" xmlns="http://www.w3.org/2000/svg" xmlns:xlink="http://www.w3.org/1999/xlink" x="0px" y="0px"
	 viewBox="0 0 512 512" style="enable-background:new 0 0 512 512;" xml:space="preserve">
<style type="text/css">
	.st0{fill:#FFFFFF;}
</style>
<g>
	<path class="st0" d="M88,456c-8.8,0-16-7.2-16-16V66c0-36.4,29.6-66,66-66h286c8.8,0,16,7.2,16,16v368c0,8.8-7.2,16-16,16
		s-16-7.2-16-16V32H138c-18.7,0-34,15.3-34,34v374C104,448.8,96.8,456,88,456z"/>
	<path class="st0" d="M424,512H144c-39.7,0-72-32.3-72-72s32.3-72,72-72h280c8.8,0,16,7.2,16,16s-7.2,16-16,16H144
		c-22.1,0-40,17.9-40,40s17.9,40,40,40h280c8.8,0,16,7.2,16,16S432.8,512,424,512z"/>
	<path class="st0" d="M424,456H144c-8.8,0-16-7.2-16-16s7.2-16,16-16h280c8.8,0,16,7.2,16,16S432.8,456,424,456z"/>
	<path class="st0" d="M160,400c-8.8,0-16-7.2-16-16V16c0-8.8,7.2-16,16-16s16,7.2,16,16v368C176,392.8,168.8,400,160,400z"/>
</g>
</svg>
