<?xml version="1.0" encoding="utf-8"?>
<!-- Generator: Adobe Illustrator 13.0.0, SVG Export Plug-In . SVG Version: 6.00 Build 14948)  -->
<!DOCTYPE svg PUBLIC "-//W3C//DTD SVG 1.1//EN" "http://www.w3.org/Graphics/SVG/1.1/DTD/svg11.dtd">
<svg version="1.1" id="Layer_1" xmlns="http://www.w3.org/2000/svg" xmlns:xlink="http://www.w3.org/1999/xlink" x="0px" y="0px"
	 width="800px" height="344px" viewBox="0 0 800 344" enable-background="new 0 0 800 344" xml:space="preserve">
<g>
	<path d="M22.868,222.035c13.26,8.5,32.3,14.96,52.7,14.96c30.26,0,47.939-15.64,47.939-39.101c0-21.08-12.24-33.66-43.18-45.22
		c-37.399-13.6-60.519-33.32-60.519-65.279c0-35.7,29.58-62.219,74.119-62.219c23.12,0,40.459,5.44,50.319,11.22l-8.16,24.14
		c-7.14-4.42-22.439-10.88-43.179-10.88c-31.28,0-43.18,18.7-43.18,34.34c0,21.42,13.94,31.959,45.56,44.2
		c38.759,15.3,58.139,33.66,58.139,67.318c0,35.36-25.839,66.301-79.899,66.301c-22.1,0-46.24-6.801-58.479-14.961L22.868,222.035z"
		/>
	<path d="M354.025,250.934c-10.54,5.44-32.641,10.881-60.521,10.881c-64.599,0-112.879-40.801-112.879-116.279
		c0-72.08,48.62-120.359,119.679-120.359c28.221,0,46.58,6.12,54.399,10.2l-7.48,24.14c-10.88-5.44-26.858-9.52-45.898-9.52
		c-53.719,0-89.419,34.339-89.419,94.519c0,56.439,32.3,92.139,87.719,92.139c18.359,0,36.719-3.74,48.619-9.521L354.025,250.934z"
		/>
	<path d="M429.842,185.995l-23.801,72.079h-30.599l77.858-229.158H489l78.199,229.158H535.58l-24.48-72.079H429.842z
		 M504.98,162.875l-22.779-65.959c-4.76-14.96-8.16-28.56-11.562-41.82h-1.02c-3.062,13.26-6.801,27.54-11.221,41.48l-22.439,66.299
		H504.98z"/>
	<path d="M600.861,258.074V28.917h32.641L706.6,144.855c16.66,26.86,30.261,50.659,40.802,74.459l1.02-0.34
		c-2.721-30.601-3.399-58.479-3.399-93.84V28.917H772.9v229.158h-29.92L670.22,141.796c-15.979-25.5-31.278-51.679-42.5-76.499
		l-1.02,0.34c1.701,28.9,2.041,56.439,2.041,94.519v97.919L600.861,258.074L600.861,258.074z"/>
</g>
<g>
	<path d="M17.957,318.727h3.428c0.034,2.945,0.965,5.23,2.793,6.855c1.828,1.625,4.401,2.438,7.719,2.438
		c2.911,0,5.201-0.655,6.868-1.969c1.667-1.311,2.501-3.117,2.501-5.42c0-2.133-0.584-3.758-1.752-4.875s-3.496-2.125-6.982-3.021
		l-3.555-0.889c-3.826-0.981-6.471-2.229-7.935-3.746c-1.464-1.514-2.196-3.643-2.196-6.385c0-3.029,1.108-5.459,3.326-7.288
		c2.217-1.827,5.18-2.741,8.887-2.741c3.927,0,6.995,0.998,9.204,2.996c2.209,1.997,3.339,4.79,3.39,8.379h-3.479
		c-0.051-2.658-0.88-4.711-2.488-6.158s-3.868-2.172-6.779-2.172c-2.742,0-4.867,0.619-6.373,1.854
		c-1.507,1.235-2.26,2.979-2.26,5.231c0,1.709,0.491,3.059,1.473,4.049c0.981,0.99,2.606,1.773,4.875,2.35l4.367,1.092
		c4.316,1.084,7.346,2.454,9.09,4.113c1.743,1.658,2.615,3.943,2.615,6.855c0,3.352-1.147,5.992-3.44,7.922
		c-2.294,1.93-5.43,2.895-9.407,2.895c-4.452,0-7.88-1.045-10.283-3.137c-2.404-2.09-3.605-5.082-3.605-8.975v-0.254H17.957z"/>
	<path d="M50.888,297.348v-4.697h3.098v4.697H50.888z M50.888,330.051v-26.99h3.098v26.99H50.888z"/>
	<path d="M61.273,330.051v-26.99h2.92v4.47c0.913-1.659,2.1-2.935,3.562-3.822c1.461-0.89,3.13-1.332,5.006-1.332
		c2.011,0,3.684,0.461,5.021,1.383c1.335,0.925,2.223,2.23,2.662,3.925c0.897-1.728,2.086-3.043,3.567-3.949
		c1.481-0.904,3.188-1.357,5.116-1.357c2.928,0,5.116,0.732,6.563,2.195c1.447,1.465,2.171,3.687,2.171,6.666v18.813h-3.174V311.49
		c0-2.27-0.44-3.895-1.32-4.875c-0.88-0.982-2.328-1.473-4.342-1.473c-2.387,0-4.3,0.735-5.738,2.209
		c-1.439,1.473-2.158,3.401-2.158,5.789v16.909h-3.123v-18.256c0-2.233-0.465-3.894-1.394-4.978
		c-0.929-1.084-2.357-1.625-4.283-1.625c-2.366,0-4.279,0.754-5.741,2.261c-1.461,1.506-2.192,3.479-2.192,5.916v16.682
		L61.273,330.051L61.273,330.051z"/>
	<path d="M125.765,303.061v26.99h-3.021v-4.316c-1.033,1.709-2.29,2.979-3.771,3.81c-1.481,0.828-3.237,1.244-5.269,1.244
		c-3.047,0-5.336-0.802-6.868-2.4c-1.532-1.6-2.298-3.989-2.298-7.172v-18.153h3.123v17.418c0,2.69,0.508,4.604,1.523,5.737
		c1.016,1.134,2.708,1.701,5.078,1.701c2.59,0,4.634-0.791,6.132-2.375c1.498-1.582,2.247-3.753,2.247-6.512v-15.972H125.765
		L125.765,303.061z"/>
	<path d="M133.103,330.051v-37.4h3.098v37.4H133.103z"/>
	<path d="M161.058,326.141c-1.422,1.541-2.962,2.691-4.621,3.453c-1.659,0.762-3.445,1.143-5.357,1.143
		c-2.726,0-4.896-0.711-6.513-2.133c-1.617-1.422-2.425-3.317-2.425-5.688c0-1.541,0.368-2.887,1.104-4.037
		c0.736-1.15,1.807-2.057,3.212-2.717c1.608-0.729,4.291-1.236,8.049-1.523c0.728-0.051,1.278-0.094,1.65-0.127
		c0.22-0.051,0.516-0.109,0.889-0.178c2.573-0.525,3.859-1.634,3.859-3.326c0-2.1-0.521-3.602-1.563-4.508
		c-1.041-0.904-2.755-1.357-5.142-1.357c-2.421,0-4.274,0.504-5.561,1.51c-1.287,1.009-1.98,2.503-2.082,4.482l-3.072-0.025
		c0.067-2.69,1.058-4.819,2.971-6.387c1.913-1.563,4.494-2.348,7.744-2.348c3.233,0,5.688,0.693,7.363,2.082
		c1.676,1.389,2.514,3.419,2.514,6.094v14.727c0,1.117,0.135,1.812,0.406,2.082c0.271,0.271,0.778,0.406,1.523,0.406
		c0.237,0,0.44-0.004,0.609-0.014c0.169-0.008,0.347-0.021,0.533-0.037v2.336c-0.39,0.084-0.779,0.147-1.168,0.189
		c-0.39,0.043-0.745,0.064-1.066,0.064c-1.287,0-2.251-0.313-2.895-0.939c-0.644-0.627-0.965-1.559-0.965-2.793v-0.432H161.058z
		 M160.855,315.908c-0.83,0.305-1.892,0.55-3.187,0.736c-1.295,0.186-3.381,0.354-6.259,0.508c-1.998,0.523-3.504,1.27-4.52,2.233
		s-1.523,2.124-1.523,3.479c0,1.54,0.546,2.768,1.638,3.682s2.577,1.371,4.456,1.371c2.86,0,5.142-0.74,6.843-2.223
		c1.701-1.48,2.552-3.499,2.552-6.055V315.908z"/>
	<path d="M175.48,295.316v7.744h5.002v2.539h-5.002v19.678c0,1.15,0.144,1.912,0.432,2.285s0.804,0.56,1.549,0.56
		c0.321,0,0.686-0.029,1.092-0.09c0.406-0.06,1.041-0.183,1.904-0.367l0.025,2.487c-0.762,0.203-1.456,0.352-2.082,0.443
		c-0.626,0.094-1.219,0.141-1.777,0.141c-1.558,0-2.658-0.395-3.301-1.182c-0.645-0.787-0.965-2.213-0.965-4.277V305.6h-3.682
		v-2.539h3.682v-7.744H175.48z"/>
	<path d="M185.789,297.348v-4.697h3.098v4.697H185.789z M185.789,330.051v-26.99h3.098v26.99H185.789z"/>
	<path d="M194.828,316.594c0-4.52,1.079-8.02,3.237-10.5c2.158-2.479,5.201-3.719,9.128-3.719c3.944,0,7.003,1.24,9.179,3.719
		c2.175,2.48,3.263,5.98,3.263,10.5c0,4.485-1.083,7.965-3.25,10.437c-2.167,2.471-5.229,3.706-9.191,3.706
		c-3.927,0-6.97-1.231-9.128-3.694C195.908,324.579,194.828,321.096,194.828,316.594z M198.052,316.594
		c0,3.622,0.8,6.432,2.399,8.43c1.6,1.998,3.847,2.996,6.741,2.996c2.928,0,5.188-0.989,6.779-2.971
		c1.591-1.98,2.387-4.799,2.387-8.455s-0.796-6.479-2.387-8.469c-1.591-1.988-3.851-2.982-6.779-2.982
		c-2.895,0-5.142,0.998-6.741,2.996C198.852,310.136,198.052,312.954,198.052,316.594z"/>
	<path d="M225.195,330.051v-26.99h3.021v4.316c1.016-1.659,2.268-2.908,3.758-3.746c1.489-0.838,3.216-1.256,5.18-1.256
		c1.862,0,3.495,0.33,4.899,0.99c1.405,0.66,2.479,1.6,3.226,2.818c0.389,0.625,0.668,1.383,0.838,2.271
		c0.169,0.889,0.254,2.35,0.254,4.381v0.787v16.428h-3.225v-16.731c0-3.166-0.487-5.312-1.46-6.438
		c-0.974-1.125-2.688-1.688-5.142-1.688c-2.522,0-4.516,0.8-5.979,2.398c-1.464,1.6-2.196,3.779-2.196,6.539v15.92h-3.174V330.051z"
		/>
	<path d="M293.953,317.838h3.377c-0.288,4.146-1.748,7.393-4.38,9.736c-2.632,2.346-6.149,3.518-10.55,3.518
		c-5.027,0-8.997-1.766-11.908-5.295c-2.912-3.529-4.367-8.365-4.367-14.51c0-6.094,1.468-10.885,4.405-14.372
		c2.937-3.487,6.927-5.229,11.972-5.229c4.231,0,7.655,1.078,10.271,3.236c2.616,2.158,4.016,5.049,4.202,8.671h-3.377
		c-0.288-2.741-1.422-4.905-3.402-6.487c-1.98-1.584-4.545-2.375-7.693-2.375c-4.046,0-7.194,1.443-9.445,4.33
		c-2.251,2.885-3.377,6.944-3.377,12.174c0,5.265,1.146,9.387,3.44,12.365c2.293,2.979,5.463,4.469,9.509,4.469
		c3.301,0,5.954-0.905,7.96-2.717C292.594,323.542,293.715,321.037,293.953,317.838z"/>
	<path d="M301.9,316.594c0-4.52,1.079-8.02,3.237-10.5c2.158-2.479,5.201-3.719,9.128-3.719c3.944,0,7.003,1.24,9.18,3.719
		c2.175,2.48,3.263,5.98,3.263,10.5c0,4.485-1.083,7.965-3.25,10.437c-2.167,2.471-5.23,3.706-9.191,3.706
		c-3.927,0-6.97-1.231-9.128-3.694C302.98,324.579,301.9,321.096,301.9,316.594z M305.125,316.594c0,3.622,0.8,6.432,2.398,8.43
		c1.601,1.998,3.848,2.996,6.741,2.996c2.929,0,5.188-0.989,6.779-2.971c1.591-1.98,2.387-4.799,2.387-8.455
		s-0.796-6.479-2.387-8.469c-1.591-1.988-3.851-2.982-6.779-2.982c-2.895,0-5.142,0.998-6.741,2.996
		C305.924,310.136,305.125,312.954,305.125,316.594z"/>
	<path d="M332.267,330.051v-26.99h3.021v4.316c1.016-1.659,2.268-2.908,3.758-3.746c1.489-0.838,3.216-1.256,5.18-1.256
		c1.862,0,3.495,0.33,4.9,0.99s2.479,1.6,3.225,2.818c0.391,0.625,0.669,1.383,0.839,2.271c0.169,0.888,0.254,2.35,0.254,4.381
		v0.787v16.428h-3.226v-16.731c0-3.166-0.485-5.312-1.46-6.438c-0.974-1.125-2.688-1.688-5.142-1.688
		c-2.522,0-4.517,0.8-5.979,2.398c-1.464,1.6-2.195,3.779-2.195,6.539v15.92h-3.175V330.051z"/>
	<path d="M364.412,295.316v7.744h5.002v2.539h-5.002v19.678c0,1.15,0.144,1.912,0.432,2.285s0.805,0.56,1.549,0.56
		c0.321,0,0.687-0.029,1.093-0.09c0.405-0.06,1.041-0.183,1.903-0.367l0.025,2.487c-0.762,0.203-1.456,0.352-2.082,0.443
		c-0.626,0.094-1.219,0.141-1.777,0.141c-1.558,0-2.656-0.395-3.301-1.182c-0.644-0.787-0.965-2.213-0.965-4.277V305.6h-3.682
		v-2.539h3.682v-7.744H364.412z"/>
	<path d="M374.39,330.051v-26.99h3.021v4.724c0.778-1.812,1.856-3.166,3.237-4.063c1.38-0.896,3.075-1.346,5.091-1.346h0.354v3.275
		h-0.406c-2.69,0-4.709,0.795-6.056,2.387c-1.346,1.591-2.019,3.969-2.019,7.135v14.879H374.39z"/>
	<path d="M389.015,316.594c0-4.52,1.079-8.02,3.237-10.5c2.158-2.479,5.201-3.719,9.128-3.719c3.943,0,7.004,1.24,9.178,3.719
		c2.177,2.48,3.265,5.98,3.265,10.5c0,4.485-1.084,7.965-3.25,10.437c-2.168,2.471-5.23,3.706-9.191,3.706
		c-3.927,0-6.97-1.231-9.128-3.694S389.015,321.096,389.015,316.594z M392.24,316.594c0,3.622,0.8,6.432,2.398,8.43
		c1.601,1.998,3.848,2.996,6.742,2.996c2.928,0,5.188-0.989,6.779-2.971c1.59-1.98,2.387-4.799,2.387-8.455
		s-0.797-6.479-2.387-8.469c-1.592-1.988-3.853-2.982-6.779-2.982c-2.895,0-5.142,0.998-6.742,2.996
		C393.04,310.136,392.24,312.954,392.24,316.594z"/>
	<path d="M419.713,330.051v-37.4h3.098v37.4H419.713z"/>
	<path d="M440.203,330.051l14.193-37.4h4.112l14.193,37.4h-3.605l-4.239-11.502H448.1l-4.315,11.502H440.203z M449.191,315.553
		h14.498l-7.263-19.246L449.191,315.553z"/>
	<path d="M494.539,320.732h3.123c-0.289,3.098-1.432,5.539-3.428,7.324c-1.998,1.786-4.597,2.68-7.795,2.68
		c-3.656,0-6.539-1.254-8.646-3.758c-2.107-2.506-3.16-5.916-3.16-10.232c0-4.469,1.07-7.98,3.211-10.537
		c2.144-2.557,5.074-3.834,8.799-3.834c3.029,0,5.521,0.85,7.478,2.551s3.01,3.94,3.162,6.717h-2.996
		c-0.254-1.963-1.08-3.537-2.478-4.723c-1.396-1.186-3.119-1.777-5.166-1.777c-2.69,0-4.828,1.017-6.412,3.047
		c-1.582,2.031-2.372,4.791-2.372,8.277c0,3.571,0.799,6.398,2.397,8.48c1.6,2.082,3.746,3.123,6.438,3.123
		c2.098,0,3.85-0.652,5.256-1.955C493.354,324.813,494.217,323.018,494.539,320.732z"/>
	<path d="M502.816,330.051v-26.99h3.021v4.724c0.777-1.812,1.857-3.166,3.236-4.063c1.381-0.896,3.075-1.346,5.092-1.346h0.354
		v3.275h-0.405c-2.691,0-4.711,0.795-6.058,2.387c-1.346,1.591-2.018,3.969-2.018,7.135v14.879H502.816z"/>
	<path d="M517.441,316.594c0-4.52,1.078-8.02,3.235-10.5c2.158-2.479,5.201-3.719,9.129-3.719c3.943,0,7.005,1.24,9.179,3.719
		c2.176,2.48,3.264,5.98,3.264,10.5c0,4.485-1.084,7.965-3.25,10.437c-2.168,2.471-5.23,3.706-9.191,3.706
		c-3.928,0-6.971-1.231-9.129-3.694S517.441,321.096,517.441,316.594z M520.666,316.594c0,3.622,0.799,6.432,2.398,8.43
		s3.848,2.996,6.741,2.996c2.929,0,5.188-0.989,6.779-2.971c1.59-1.98,2.387-4.799,2.387-8.455s-0.797-6.479-2.387-8.469
		c-1.592-1.988-3.852-2.982-6.779-2.982c-2.895,0-5.143,0.998-6.741,2.996C521.465,310.136,520.666,312.954,520.666,316.594z"/>
	<path d="M546.666,321.646h3.123c0.084,1.86,0.791,3.373,2.119,4.53c1.33,1.16,3.035,1.74,5.117,1.74
		c2.25,0,4.022-0.444,5.317-1.334s1.943-2.094,1.943-3.617c0-2.184-2.396-3.852-7.187-5.002c-0.067-0.019-0.11-0.024-0.127-0.024
		c-3.858-0.933-6.444-1.955-7.758-3.072c-1.311-1.117-1.967-2.676-1.967-4.672c0-2.319,0.859-4.203,2.576-5.65
		c1.719-1.447,3.957-2.17,6.717-2.17c3.029,0,5.441,0.758,7.236,2.271c1.793,1.516,2.783,3.619,2.971,6.311h-3.174
		c-0.137-1.828-0.822-3.254-2.057-4.279c-1.236-1.023-2.912-1.535-5.027-1.535c-1.846,0-3.318,0.424-4.418,1.271
		c-1.103,0.846-1.65,1.963-1.65,3.353c0,2.402,2.453,4.18,7.363,5.331c0.643,0.152,1.125,0.263,1.447,0.33
		c3.08,0.763,5.221,1.709,6.424,2.845c1.201,1.133,1.803,2.725,1.803,4.772c0,2.285-0.943,4.146-2.832,5.586
		c-1.887,1.438-4.371,2.158-7.451,2.158c-3.133,0-5.646-0.83-7.541-2.488C547.74,326.641,546.75,324.422,546.666,321.646z"/>
	<path d="M572.209,321.646h3.123c0.084,1.86,0.791,3.373,2.119,4.53c1.33,1.16,3.035,1.74,5.117,1.74
		c2.25,0,4.022-0.444,5.317-1.334s1.943-2.094,1.943-3.617c0-2.184-2.396-3.852-7.187-5.002c-0.067-0.019-0.11-0.024-0.127-0.024
		c-3.858-0.933-6.444-1.955-7.758-3.072c-1.311-1.117-1.967-2.676-1.967-4.672c0-2.319,0.859-4.203,2.576-5.65
		c1.719-1.447,3.957-2.17,6.717-2.17c3.029,0,5.441,0.758,7.236,2.271c1.793,1.516,2.783,3.619,2.971,6.311h-3.174
		c-0.137-1.828-0.822-3.254-2.057-4.279c-1.236-1.023-2.912-1.535-5.027-1.535c-1.846,0-3.318,0.424-4.418,1.271
		c-1.103,0.846-1.65,1.963-1.65,3.353c0,2.402,2.453,4.18,7.363,5.331c0.643,0.152,1.125,0.263,1.447,0.33
		c3.08,0.763,5.221,1.709,6.424,2.845c1.201,1.133,1.803,2.725,1.803,4.772c0,2.285-0.943,4.146-2.832,5.586
		c-1.887,1.438-4.371,2.158-7.451,2.158c-3.133,0-5.646-0.83-7.541-2.488C573.283,326.641,572.293,324.422,572.209,321.646z"/>
	<path d="M613.418,330.051v-37.4h3.783l21.125,32.094V292.65h3.326v37.4h-3.81l-21.049-32.094v32.094H613.418z"/>
	<path d="M651.174,317.152v0.152c0,3.301,0.795,5.928,2.387,7.883c1.591,1.955,3.724,2.934,6.398,2.934
		c2.115,0,3.885-0.572,5.307-1.715s2.285-2.703,2.591-4.684h3.122c-0.34,2.741-1.522,4.938-3.555,6.588
		c-2.031,1.649-4.588,2.477-7.668,2.477c-3.674,0-6.551-1.244-8.633-3.732S648,321.113,648,316.695
		c0-4.504,1.045-8.016,3.135-10.537c2.092-2.522,4.998-3.783,8.724-3.783c3.62,0,6.444,1.205,8.467,3.617s3.035,5.785,3.035,10.119
		v1.041H651.174z M651.225,314.639l16.91,0.025c-0.137-2.979-0.943-5.32-2.426-7.021c-1.48-1.701-3.449-2.551-5.902-2.551
		c-2.473,0-4.481,0.863-6.031,2.59C652.227,309.409,651.377,311.727,651.225,314.639z"/>
	<path d="M681.008,295.316v7.744h5.002v2.539h-5.002v19.678c0,1.15,0.144,1.912,0.432,2.285c0.287,0.373,0.804,0.56,1.55,0.56
		c0.319,0,0.686-0.029,1.092-0.09c0.406-0.06,1.041-0.183,1.904-0.367l0.024,2.487c-0.762,0.203-1.457,0.352-2.082,0.443
		c-0.627,0.094-1.219,0.141-1.776,0.141c-1.56,0-2.658-0.395-3.302-1.182c-0.645-0.787-0.965-2.213-0.965-4.277V305.6h-3.682v-2.539
		h3.682v-7.744H681.008z"/>
	<path d="M695.988,330.051l-8.48-26.99h3.174l6.957,22.572l6.195-22.572h3.479l6.095,22.572l6.905-22.572h3.175l-8.48,26.99h-3.326
		l-6.221-22.572l-6.195,22.572H695.988z"/>
	<path d="M725.619,316.594c0-4.52,1.078-8.02,3.236-10.5c2.157-2.479,5.2-3.719,9.129-3.719c3.942,0,7.004,1.24,9.178,3.719
		c2.176,2.48,3.264,5.98,3.264,10.5c0,4.485-1.084,7.965-3.25,10.437c-2.168,2.471-5.229,3.706-9.19,3.706
		c-3.929,0-6.972-1.231-9.13-3.694C726.698,324.579,725.619,321.096,725.619,316.594z M728.844,316.594
		c0,3.622,0.799,6.432,2.398,8.43s3.848,2.996,6.742,2.996c2.928,0,5.188-0.989,6.778-2.971c1.591-1.98,2.388-4.799,2.388-8.455
		s-0.797-6.479-2.388-8.469c-1.592-1.988-3.852-2.982-6.778-2.982c-2.896,0-5.144,0.998-6.742,2.996
		C729.643,310.136,728.844,312.954,728.844,316.594z"/>
	<path d="M755.986,330.051v-26.99h3.021v4.724c0.777-1.812,1.857-3.166,3.236-4.063c1.381-0.896,3.076-1.346,5.092-1.346h0.354
		v3.275h-0.405c-2.691,0-4.711,0.795-6.058,2.387c-1.346,1.591-2.018,3.969-2.018,7.135v14.879H755.986z"/>
	<path d="M771.957,330.051v-37.4h3.123v23.512l13.482-13.102h3.985l-10.182,9.877l11.426,17.112h-3.58l-10.029-15.03l-5.104,4.899
		v10.131L771.957,330.051L771.957,330.051z"/>
</g>
</svg>
