<?xml version="1.0" encoding="utf-8"?>
<!-- Generator: Adobe Illustrator 24.0.0, SVG Export Plug-In . SVG Version: 6.00 Build 0)  -->
<svg version="1.1" id="Layer_1" xmlns="http://www.w3.org/2000/svg" xmlns:xlink="http://www.w3.org/1999/xlink" x="0px" y="0px"
	 viewBox="0 0 512 512" style="enable-background:new 0 0 512 512;" xml:space="preserve">
<style type="text/css">
	.st0{fill:#FFFFFF;}
</style>
<g>
	<g>
		<path class="st0" d="M507.4,241.4c-4-5.7-98.4-139-251.4-139S8.5,235.7,4.6,241.4c-6.1,8.8-6.1,20.4,0,29.2
			c4,5.7,98.4,139,251.4,139s247.5-133.3,251.4-139C513.5,261.8,513.5,250.2,507.4,241.4z M256,384C114.6,384,25.6,256,25.6,256
			s89-128,230.4-128s230.4,128,230.4,128S397.4,384,256,384z"/>
	</g>
</g>
<g>
	<g>
		<path class="st0" d="M256,153.6c-56.6,0-102.4,45.8-102.4,102.4S199.4,358.4,256,358.4S358.4,312.6,358.4,256
			S312.5,153.6,256,153.6z M256,332.8c-42.4,0-76.8-34.4-76.8-76.8s34.4-76.8,76.8-76.8s76.8,34.4,76.8,76.8S298.4,332.8,256,332.8z
			"/>
	</g>
</g>
</svg>
