<?xml version="1.0" encoding="utf-8"?>
<!-- Generator: Adobe Illustrator 24.0.0, SVG Export Plug-In . SVG Version: 6.00 Build 0)  -->
<svg version="1.1" id="Layer_1" xmlns="http://www.w3.org/2000/svg" xmlns:xlink="http://www.w3.org/1999/xlink" x="0px" y="0px"
	 viewBox="0 0 512 512" style="enable-background:new 0 0 512 512;" xml:space="preserve">
<style type="text/css">
	.st0{fill:#FFFFFF;}
</style>
<g>
	<g>
		<path class="st0" d="M204.8,69.7c-66,0-119.5,66.9-119.5,149.3s53.5,149.3,119.5,149.3S324.3,301.5,324.3,219
			S270.8,69.7,204.8,69.7z M204.8,342.8c-51.8,0-93.9-55.5-93.9-123.7c0-68.2,42.1-123.7,93.9-123.7s93.9,55.5,93.9,123.7
			S256.6,342.8,204.8,342.8z"/>
	</g>
</g>
<g>
	<g>
		<path class="st0" d="M331.5,38.4c-22.8,0-43.6,9.5-60.7,25c7.3,4.5,14.2,9.8,20.8,15.7c11.7-9.4,25.3-15.2,39.9-15.2
			c42.8,0,77.7,46.4,77.7,103.5c0,51.5-28.5,94-65.5,101.9c-2.3,9.3-5.4,18.2-8.9,26.8c55.5-2.2,100-58.8,100-128.7
			C434.7,96.2,388.5,38.4,331.5,38.4z"/>
	</g>
</g>
<g>
	<g>
		<path class="st0" d="M451.1,292c-8.3-3.9-18.2-8.5-29.7-13.9c-6,7.1-12.6,13.4-19.7,19c71.5,34.3,84.6,36.3,84.6,51.3
			c0,17.2-17.2,17.2-34.4,17.2c-5.1,0-27.2,0-56,0c12.3,7.4,21.9,15.6,28.6,25.6H452c14.8,0,60,0,60-42.8
			C512,320.2,492.9,311.3,451.1,292z"/>
	</g>
</g>
<g>
	<g>
		<path class="st0" d="M341.5,366.6c-10.8-5-23.9-11.1-39.2-18.4c-6.3,6.9-13,13.2-20.3,18.7c86.2,41.6,101.9,43.7,101.9,61.3
			c0,19.9-19.9,19.9-39.8,19.9c-19.9,0-258.8,0-278.8,0c-19.9,0-39.8,0-39.8-19.9c0-17.6,15.7-19.7,101.9-61.3
			c-7.2-5.5-14-11.8-20.3-18.7c-15.4,7.3-28.4,13.4-39.2,18.4C19.9,388.9,0,398.1,0,428.1c0,45.5,47.5,45.5,65.4,45.5h278.8
			c17.9,0,65.4,0,65.4-45.5C409.6,398.1,389.7,388.9,341.5,366.6z"/>
	</g>
</g>
</svg>
