<svg id="Layer_1" data-name="Layer 1" xmlns="http://www.w3.org/2000/svg" viewBox="0 0 1745 465.44"><defs><style>.cls-1{font-size:44px;font-family:MyriadPro-Semibold, Myriad Pro;font-weight:600;}.cls-1,.cls-11,.cls-14,.cls-9{fill:#fff;}.cls-2{letter-spacing:0em;}.cls-3{letter-spacing:-0.03em;}.cls-4{letter-spacing:-0.03em;}.cls-5{letter-spacing:-0.07em;}.cls-6{letter-spacing:-0.04em;}.cls-7{letter-spacing:0.01em;}.cls-8{fill:none;stroke:#fff;stroke-miterlimit:10;}.cls-11,.cls-9{font-size:50px;font-family:MyriadPro-Regular, Myriad Pro;}.cls-15,.cls-9{letter-spacing:0em;}.cls-10{letter-spacing:0em;}.cls-12{fill:#39b54a;}.cls-13{fill:#fbb040;}.cls-16{letter-spacing:0.02em;}.cls-17{letter-spacing:0em;}.cls-18{letter-spacing:-0.01em;}.cls-19{letter-spacing:0em;}</style></defs><title>user_table</title><text class="cls-1" transform="translate(92.46 63.6)">N<tspan class="cls-2" x="29.74" y="0">A</tspan><tspan x="57.6" y="0">ME</tspan></text><text class="cls-1" transform="translate(331.82 63.6)">MODULE 1</text><text class="cls-1" transform="translate(646.4 63.6)">MODULE 2</text><text class="cls-1" transform="translate(951.4 63.6)">MODULE 3</text><text class="cls-1" transform="translate(1241.62 63.6)"><tspan class="cls-3">T</tspan><tspan class="cls-4" x="21.87" y="0">O</tspan><tspan class="cls-5" x="51.66" y="0">T</tspan><tspan x="71.54" y="0">AL</tspan><tspan class="cls-6" x="121.22" y="0"> </tspan><tspan x="128.57" y="0">TIME</tspan></text><text class="cls-1" transform="translate(1547.96 63.6)">D<tspan class="cls-7" x="30.05" y="0">E</tspan><tspan x="53.06" y="0">VICE</tspan></text><rect class="cls-8" x="23.6" y="88.08" width="1689.8" height="65.31"/><text class="cls-9" transform="translate(41.97 139.1)">B<tspan class="cls-10" x="27.3" y="0">ob</tspan></text><text class="cls-11" transform="translate(1237.97 139.1)">1 hr 4 min</text><text class="cls-11" transform="translate(1547.97 139.1)">VR</text><line class="cls-8" x1="291.79" y1="88.08" x2="291.79" y2="153.39"/><line class="cls-8" x1="605.12" y1="88.08" x2="605.12" y2="153.39"/><line class="cls-8" x1="899.79" y1="88.08" x2="899.79" y2="153.39"/><line class="cls-8" x1="1203.79" y1="88.08" x2="1203.79" y2="153.39"/><line class="cls-8" x1="1513.79" y1="88.08" x2="1513.79" y2="153.39"/><circle class="cls-12" cx="322.7" cy="120.73" r="16"/><circle class="cls-12" cx="396.7" cy="120.73" r="16"/><circle class="cls-13" cx="470.7" cy="120.73" r="16"/><circle class="cls-14" cx="544.7" cy="120.73" r="16"/><circle class="cls-14" cx="637.29" cy="120.73" r="16"/><circle class="cls-14" cx="711.29" cy="120.73" r="16"/><circle class="cls-14" cx="785.29" cy="120.73" r="16"/><circle class="cls-14" cx="859.29" cy="120.73" r="16"/><circle class="cls-14" cx="942.29" cy="120.73" r="16"/><circle class="cls-14" cx="1016.29" cy="120.73" r="16"/><circle class="cls-14" cx="1090.29" cy="120.73" r="16"/><circle class="cls-14" cx="1164.29" cy="120.73" r="16"/><rect class="cls-8" x="23.6" y="153.39" width="1689.8" height="65.31"/><text class="cls-11" transform="translate(41.97 204.41)"><tspan class="cls-15">D</tspan><tspan x="33.5" y="0">oug</tspan></text><text class="cls-11" transform="translate(1237.97 204.41)">1 hr 2 min</text><text class="cls-11" transform="translate(1547.97 204.41)">VR</text><line class="cls-8" x1="291.79" y1="153.39" x2="291.79" y2="218.69"/><line class="cls-8" x1="605.12" y1="153.39" x2="605.12" y2="218.69"/><line class="cls-8" x1="899.79" y1="153.39" x2="899.79" y2="218.69"/><line class="cls-8" x1="1203.79" y1="153.39" x2="1203.79" y2="218.69"/><line class="cls-8" x1="1513.79" y1="153.39" x2="1513.79" y2="218.69"/><circle class="cls-12" cx="322.7" cy="186.04" r="16"/><circle class="cls-12" cx="396.7" cy="186.04" r="16"/><circle class="cls-12" cx="470.7" cy="186.04" r="16"/><circle class="cls-12" cx="544.7" cy="186.04" r="16"/><circle class="cls-12" cx="637.29" cy="186.04" r="16"/><circle class="cls-12" cx="711.29" cy="186.04" r="16"/><circle class="cls-14" cx="785.29" cy="186.04" r="16"/><circle class="cls-14" cx="859.29" cy="186.04" r="16"/><circle class="cls-14" cx="942.29" cy="186.04" r="16"/><circle class="cls-14" cx="1016.29" cy="186.04" r="16"/><circle class="cls-14" cx="1090.29" cy="186.04" r="16"/><circle class="cls-14" cx="1164.29" cy="186.04" r="16"/><rect class="cls-8" x="23.6" y="218.69" width="1689.8" height="65.31"/><text class="cls-11" transform="translate(41.97 269.71)">Julia</text><text class="cls-11" transform="translate(1237.97 269.71)">0 hr 36 min</text><text class="cls-11" transform="translate(1547.97 269.71)">KB</text><line class="cls-8" x1="291.79" y1="218.69" x2="291.79" y2="284"/><line class="cls-8" x1="605.12" y1="218.69" x2="605.12" y2="284"/><line class="cls-8" x1="899.79" y1="218.69" x2="899.79" y2="284"/><line class="cls-8" x1="1203.79" y1="218.69" x2="1203.79" y2="284"/><line class="cls-8" x1="1513.79" y1="218.69" x2="1513.79" y2="284"/><circle class="cls-12" cx="322.7" cy="251.35" r="16"/><circle class="cls-13" cx="396.7" cy="251.35" r="16"/><circle class="cls-14" cx="470.7" cy="251.35" r="16"/><circle class="cls-14" cx="544.7" cy="251.35" r="16"/><circle class="cls-14" cx="637.29" cy="251.35" r="16"/><circle class="cls-14" cx="711.29" cy="251.35" r="16"/><circle class="cls-14" cx="785.29" cy="251.35" r="16"/><circle class="cls-14" cx="859.29" cy="251.35" r="16"/><circle class="cls-14" cx="942.29" cy="251.35" r="16"/><circle class="cls-14" cx="1016.29" cy="251.35" r="16"/><circle class="cls-14" cx="1090.29" cy="251.35" r="16"/><circle class="cls-14" cx="1164.29" cy="251.35" r="16"/><rect class="cls-8" x="23.6" y="284" width="1689.8" height="65.31"/><text class="cls-11" transform="translate(41.97 335.02)"><tspan class="cls-15">R</tspan><tspan x="27.1" y="0">obe</tspan><tspan class="cls-16" x="108.05" y="0">r</tspan><tspan x="125.6" y="0">t</tspan></text><text class="cls-11" transform="translate(1237.97 335.02)">0 hr 14 min</text><text class="cls-11" transform="translate(1547.97 335.02)">VR</text><line class="cls-8" x1="291.79" y1="284" x2="291.79" y2="349.31"/><line class="cls-8" x1="605.12" y1="284" x2="605.12" y2="349.31"/><line class="cls-8" x1="899.79" y1="284" x2="899.79" y2="349.31"/><line class="cls-8" x1="1203.79" y1="284" x2="1203.79" y2="349.31"/><line class="cls-8" x1="1513.79" y1="284" x2="1513.79" y2="349.31"/><circle class="cls-12" cx="322.7" cy="316.65" r="16"/><circle class="cls-12" cx="396.7" cy="316.65" r="16"/><circle class="cls-12" cx="470.7" cy="316.65" r="16"/><circle class="cls-12" cx="544.7" cy="316.65" r="16"/><circle class="cls-12" cx="637.29" cy="316.65" r="16"/><circle class="cls-12" cx="711.29" cy="316.65" r="16"/><circle class="cls-12" cx="785.29" cy="316.65" r="16"/><circle class="cls-12" cx="859.29" cy="316.65" r="16"/><ellipse class="cls-13" cx="949.32" cy="315.43" rx="15.53" ry="14.78"/><ellipse class="cls-14" cx="1021.13" cy="315.43" rx="15.53" ry="14.78"/><ellipse class="cls-14" cx="1092.95" cy="315.43" rx="15.53" ry="14.78"/><ellipse class="cls-14" cx="1164.76" cy="315.43" rx="15.53" ry="14.78"/><rect class="cls-8" x="23.6" y="349.31" width="1689.8" height="65.31"/><text class="cls-11" transform="translate(41.97 400.33)">G<tspan class="cls-17" x="32.3" y="0">r</tspan><tspan class="cls-10" x="48.4" y="0">a</tspan><tspan class="cls-18" x="72.5" y="0">c</tspan><tspan class="cls-19" x="94.6" y="0">e</tspan></text><text class="cls-11" transform="translate(1237.97 400.33)">1 hr 11 min</text><text class="cls-11" transform="translate(1547.97 400.33)">KB</text><line class="cls-8" x1="291.79" y1="349.31" x2="291.79" y2="414.61"/><line class="cls-8" x1="605.12" y1="349.31" x2="605.12" y2="414.61"/><line class="cls-8" x1="899.79" y1="349.31" x2="899.79" y2="414.61"/><line class="cls-8" x1="1203.79" y1="349.31" x2="1203.79" y2="414.61"/><line class="cls-8" x1="1513.79" y1="349.31" x2="1513.79" y2="414.61"/><circle class="cls-12" cx="322.7" cy="381.96" r="16"/><circle class="cls-12" cx="396.7" cy="381.96" r="16"/><circle class="cls-12" cx="470.7" cy="381.96" r="16"/><circle class="cls-12" cx="544.7" cy="381.96" r="16"/><circle class="cls-13" cx="637.29" cy="381.96" r="16"/><circle class="cls-14" cx="711.29" cy="381.96" r="16"/><circle class="cls-14" cx="785.29" cy="381.96" r="16"/><circle class="cls-14" cx="859.29" cy="381.96" r="16"/><circle class="cls-14" cx="942.29" cy="381.96" r="16"/><circle class="cls-14" cx="1016.29" cy="381.96" r="16"/><circle class="cls-14" cx="1090.29" cy="381.96" r="16"/><circle class="cls-14" cx="1164.29" cy="381.96" r="16"/></svg>