<svg xmlns="http://www.w3.org/2000/svg" viewBox="0 0 370.23 136.67"><defs><style>.cls-1,.cls-2{isolation:isolate;}.cls-2{font-size:100px;font-family:Mangal;letter-spacing:0.22em;}.cls-2,.cls-3{fill:#f6f8f7;}</style></defs><title>vasc-header</title><g id="Layer_2" data-name="Layer 2"><g id="Layer_1-2" data-name="Layer 1"><g class="cls-1"><text class="cls-2" transform="translate(0 87.06)">VASC</text><g class="cls-1"><path class="cls-3" d="M8.6,123.06l-7-18.89H3.15L6.82,114c1,2.87,2.24,6,2.64,7.62h.06c.4-1.41,1.7-4.73,2.75-7.51l3.81-10h1.54l-7.29,18.89Z"/><path class="cls-3" d="M19.91,103.17h1.35v2.61H19.91Zm0,6.39h1.35v13.5H19.91Z"/><path class="cls-3" d="M25.69,113.23c0-2.26,0-3.23,0-3.67H27c0,.44.05,1.3.05,3a5.11,5.11,0,0,1,4.7-3.35v1.46c-2.81.19-4.7,2.13-4.7,5.34v7H25.69Z"/><path class="cls-3" d="M33.25,109.56h2.51v-4.21h1.35v4.21h3.21v1.27H37.11v8.77c0,1.52.33,2.38,1.62,2.38a5.36,5.36,0,0,0,1.41-.16V123a5,5,0,0,1-1.68.24c-1.73,0-2.7-.86-2.7-3v-9.4H33.25Z"/><path class="cls-3" d="M52.8,119.12c0,1.32,0,3.43,0,3.94H51.53a20.24,20.24,0,0,1-.08-2.35c-.57,1.59-2,2.67-4.35,2.67-1.94,0-4.43-.75-4.43-4.88v-8.94H44v8.61c0,2,.62,3.89,3.29,3.89,3,0,4.16-1.7,4.16-5.56v-6.94H52.8Z"/><path class="cls-3" d="M66.49,120.5a15.83,15.83,0,0,0,.18,2.56H65.38a8.59,8.59,0,0,1-.24-2.08c-.46,1-1.65,2.4-4.43,2.4-3.13,0-4.48-2-4.48-4,0-3,2.29-4.32,6.34-4.32h2.57v-1.38c0-1.35-.41-3.16-3.49-3.16-2.72,0-3.13,1.43-3.42,2.54H56.88c.16-1.49,1.08-3.78,4.8-3.78,3.08,0,4.81,1.3,4.81,4.26Zm-1.33-4.32H62.52c-3,0-4.86.78-4.86,3.1a2.81,2.81,0,0,0,3.1,2.86c3.86,0,4.4-2.56,4.4-5.48Z"/><path class="cls-3" d="M70.94,123.06V103.17h1.35v19.89Z"/><path class="cls-3" d="M86.12,116.53l-2.41,6.53H82.23l6.94-18.89h1.72l7.24,18.89H96.54l-2.46-6.53Zm7.47-1.35c-2.1-5.62-3.18-8.32-3.56-9.58h0c-.46,1.43-1.67,4.77-3.37,9.58Z"/><path class="cls-3" d="M111,119.09c-.65,2.38-2.21,4.29-5.24,4.29-3.37,0-5.77-2.51-5.77-7,0-3.7,2-7.13,5.94-7.13a4.83,4.83,0,0,1,5.07,4.32H109.6a3.64,3.64,0,0,0-3.72-3c-2.86,0-4.48,2.43-4.48,5.8,0,3.21,1.51,5.81,4.34,5.81,2,0,3.16-1,3.86-3Z"/><path class="cls-3" d="M124.18,119.09c-.64,2.38-2.21,4.29-5.23,4.29-3.38,0-5.78-2.51-5.78-7,0-3.7,2-7.13,5.94-7.13a4.82,4.82,0,0,1,5.07,4.32h-1.37a3.65,3.65,0,0,0-3.73-3c-2.86,0-4.48,2.43-4.48,5.8,0,3.21,1.51,5.81,4.35,5.81,2,0,3.16-1,3.86-3Z"/><path class="cls-3" d="M127.75,116.47c0,3.49,1.78,5.65,4.37,5.65a3.8,3.8,0,0,0,3.89-2.54h1.38a5.18,5.18,0,0,1-5.32,3.8c-4.1,0-5.7-3.53-5.7-7,0-3.86,1.92-7.18,5.86-7.18,4.16,0,5.48,3.59,5.48,6.13,0,.37,0,.75,0,1.1Zm8.56-1.18c0-2.68-1.49-4.78-4.13-4.78s-4.05,1.94-4.35,4.78Z"/><path class="cls-3" d="M141.33,119.34a3.57,3.57,0,0,0,3.83,2.8c2.41,0,3.38-1.1,3.38-2.62s-.65-2.29-3.67-3c-3.49-.84-4.35-1.89-4.35-3.67s1.4-3.59,4.45-3.59,4.51,1.86,4.73,3.78h-1.35a3.19,3.19,0,0,0-3.43-2.54c-2.35,0-3,1.16-3,2.24,0,1.24.65,1.86,3.32,2.51,3.8.92,4.75,2.16,4.75,4.19,0,2.45-2,4-4.83,4-3.08,0-4.81-1.62-5.19-4Z"/><path class="cls-3" d="M153.64,119.34a3.58,3.58,0,0,0,3.84,2.8c2.4,0,3.37-1.1,3.37-2.62s-.65-2.29-3.67-3c-3.48-.84-4.35-1.89-4.35-3.67s1.41-3.59,4.46-3.59,4.5,1.86,4.72,3.78h-1.35a3.18,3.18,0,0,0-3.43-2.54c-2.35,0-3,1.16-3,2.24,0,1.24.65,1.86,3.32,2.51,3.8.92,4.75,2.16,4.75,4.19,0,2.45-2,4-4.83,4-3.08,0-4.81-1.62-5.18-4Z"/><path class="cls-3" d="M170.63,109.56h2.51v-4.21h1.34v4.21h3.22v1.27h-3.22v8.77c0,1.52.33,2.38,1.62,2.38a5.31,5.31,0,0,0,1.41-.16V123a5,5,0,0,1-1.68.24c-1.72,0-2.69-.86-2.69-3v-9.4h-2.51Z"/><path class="cls-3" d="M191.22,116.28c0,3.76-2.08,7.1-6.1,7.1-3.64,0-5.91-3-5.91-7.07,0-3.86,2.13-7.07,6-7.07C188.85,109.24,191.22,112.05,191.22,116.28Zm-10.58,0c0,3.21,1.73,5.81,4.59,5.81s4.56-2.41,4.56-5.81c0-3.18-1.62-5.8-4.61-5.8S180.64,113.07,180.64,116.31Z"/><path class="cls-3" d="M202.16,118c.57,2.51,2.24,4,5.34,4,3.46,0,4.78-1.73,4.78-3.78s-.94-3.45-5.1-4.48c-4-1-5.72-2.29-5.72-5,0-2.48,1.81-4.8,5.86-4.8s5.91,2.53,6.15,4.83H212c-.43-2-1.76-3.49-4.73-3.49-2.72,0-4.21,1.27-4.21,3.38s1.25,2.89,4.73,3.75c5.32,1.32,6.1,3.46,6.1,5.72,0,2.78-2,5.19-6.4,5.19-4.72,0-6.45-2.76-6.8-5.29Z"/><path class="cls-3" d="M221.73,105.52h-6.34v-1.35h14.2v1.35h-6.37v17.54h-1.49Z"/><path class="cls-3" d="M243.49,113.77h-9.63v7.94h10.55l-.21,1.35H232.4V104.17H244v1.35H233.86v6.91h9.63Z"/><path class="cls-3" d="M264.5,114.37c0-3.7,0-7.24.11-9.13h-.09c-.75,2.54-4.58,11.85-7,17.82H256.1c-1.81-4.62-5.77-15-6.64-17.84h-.05c.13,2.16.19,6.56.19,9.8v8h-1.46V104.17h2.19c2.59,6.47,5.85,15,6.56,17.08h.05c.43-1.38,4.21-10.8,6.86-17.08H266v18.89H264.5Z"/><path class="cls-3" d="M292.52,118a6.9,6.9,0,0,1-7.1,5.27c-5.42,0-8.28-4.32-8.28-9.64,0-5.1,2.81-9.74,8.31-9.74,4.08,0,6.48,2.26,7.1,5.42h-1.46a5.46,5.46,0,0,0-5.72-4.08c-4.7,0-6.67,4.3-6.67,8.37s1.95,8.32,6.78,8.32c3.08,0,4.64-1.6,5.59-3.92Z"/><path class="cls-3" d="M305.16,120.5a15.5,15.5,0,0,0,.19,2.56h-1.3a9.82,9.82,0,0,1-.24-2.08c-.46,1-1.64,2.4-4.43,2.4-3.13,0-4.48-2-4.48-4,0-3,2.3-4.32,6.35-4.32h2.56v-1.38c0-1.35-.4-3.16-3.48-3.16-2.73,0-3.13,1.43-3.43,2.54h-1.35c.16-1.49,1.08-3.78,4.81-3.78,3.07,0,4.8,1.3,4.8,4.26Zm-1.32-4.32h-2.65c-3,0-4.86.78-4.86,3.1a2.82,2.82,0,0,0,3.11,2.86c3.86,0,4.4-2.56,4.4-5.48Z"/><path class="cls-3" d="M309.62,113.23c0-2.26,0-3.23,0-3.67h1.32c0,.44.06,1.3.06,3a5.11,5.11,0,0,1,4.7-3.35v1.46c-2.81.19-4.7,2.13-4.7,5.34v7h-1.35Z"/><path class="cls-3" d="M318.45,116.47c0,3.49,1.78,5.65,4.37,5.65a3.8,3.8,0,0,0,3.89-2.54h1.37a5.16,5.16,0,0,1-5.31,3.8c-4.11,0-5.7-3.53-5.7-7,0-3.86,1.92-7.18,5.86-7.18,4.15,0,5.48,3.59,5.48,6.13,0,.37,0,.75,0,1.1Zm8.55-1.18c0-2.68-1.48-4.78-4.13-4.78s-4,1.94-4.34,4.78Z"/><path class="cls-3" d="M332.14,116.47c0,3.49,1.78,5.65,4.37,5.65a3.8,3.8,0,0,0,3.89-2.54h1.37a5.16,5.16,0,0,1-5.31,3.8c-4.11,0-5.7-3.53-5.7-7,0-3.86,1.92-7.18,5.86-7.18,4.15,0,5.48,3.59,5.48,6.13,0,.37,0,.75,0,1.1Zm8.55-1.18c0-2.68-1.48-4.78-4.13-4.78s-4.05,1.94-4.34,4.78Z"/><path class="cls-3" d="M345.39,113.23c0-2.26,0-3.23,0-3.67h1.32c0,.44.05,1.3.05,3a5.12,5.12,0,0,1,4.7-3.35v1.46c-2.81.19-4.7,2.13-4.7,5.34v7h-1.35Z"/><path class="cls-3" d="M354.25,119.34a3.57,3.57,0,0,0,3.83,2.8c2.4,0,3.38-1.1,3.38-2.62s-.65-2.29-3.67-3c-3.49-.84-4.35-1.89-4.35-3.67s1.4-3.59,4.45-3.59,4.51,1.86,4.73,3.78h-1.35a3.2,3.2,0,0,0-3.43-2.54c-2.35,0-3,1.16-3,2.24,0,1.24.64,1.86,3.32,2.51,3.8.92,4.75,2.16,4.75,4.19,0,2.45-2,4-4.84,4-3.07,0-4.8-1.62-5.18-4Z"/></g></g></g></g></svg>