<?xml version="1.0" encoding="utf-8"?>
<!-- Generator: Adobe Illustrator 24.0.0, SVG Export Plug-In . SVG Version: 6.00 Build 0)  -->
<svg version="1.1" id="Layer_1" xmlns="http://www.w3.org/2000/svg" xmlns:xlink="http://www.w3.org/1999/xlink" x="0px" y="0px"
	 viewBox="0 0 512 512" style="enable-background:new 0 0 512 512;" xml:space="preserve">
<style type="text/css">
	.st0{fill:#FFFFFF;}
</style>
<g>
	<g>
		<path class="st0" d="M467.1,344c-19.1-11-41.2-14.6-62.6-10.3L326.7,256l77.8-77.7c5.8,1.2,11.6,1.7,17.4,1.7
			c31.6,0,61.7-16.7,78-45c12-20.8,15.2-45.1,9-68.3c-6.2-23.2-21.1-42.6-41.9-54.6C424-12.7,368.8,2.1,344,45
			c-11,19.1-14.6,41.2-10.3,62.6L256,185.3l-6.3-6.3c-3.9-3.9-10.2-3.9-14.1,0c-3.9,3.9-3.9,10.2,0,14.1l6.3,6.3l-42.4,42.4
			l-74.6-74.6l42.4-42.4l4.7,4.7c3.9,3.9,10.2,3.9,14.1,0c3.9-3.9,3.9-10.2,0-14.1l-7.8-7.8c7.4-37.5-9.8-76.1-43.3-95.4
			C109-2.8,77.4-3.9,50.4,9.3c-8.9,4.4-13.6,10-13.8,16.8c-0.2,6.6,3.8,12.4,11.9,17.1l26.8,15.5c4.6,2.6,4.6,3.9,4.6,6.2v11.5
			c0,7.2-0.7,8.4-6.9,12l-10,5.7c-1.9,1.1-3.1,1.8-7.7-0.8L28.5,77.7c-8.2-4.7-15.1-5.3-20.8-1.8C2,79.5-0.5,86.4,0.1,96.3
			C2.2,126.2,19,153,44.9,168c19.1,11,41.2,14.6,62.6,10.3l77.7,77.7l-77.8,77.7c-37.5-7.4-76.1,9.8-95.4,43.3
			c-12,20.8-15.2,45.1-9,68.3c6.2,23.2,21.1,42.6,41.9,54.6c14.1,8.2,29.6,12,44.8,12c31.1,0,61.4-16.1,78.1-45
			c11-19.1,14.6-41.2,10.3-62.6l77.7-77.7l77.8,77.7c-7.4,37.5,9.8,76.1,43.3,95.4c13.9,8,29.4,12.1,45,12.1c13.5,0,27-3,39.5-9.1
			c8.9-4.4,13.6-10,13.8-16.8c0.2-6.6-3.8-12.4-11.9-17.1l-26.8-15.5c-4.6-2.6-4.6-3.9-4.6-6.2v-11.5c0-7.2,0.7-8.4,6.9-12l10-5.7
			c1.9-1.1,3.1-1.8,7.7,0.8l26.8,15.5c8.1,4.7,15.1,5.3,20.8,1.8c5.7-3.6,8.3-10.4,7.6-20.4C509.8,385.8,493,359,467.1,344
			L467.1,344z M54.9,150.7C35.1,139.2,22.1,118.8,20.2,96l25.2,14.5c6.3,3.6,15.9,7.6,27.7,0.8l10-5.7c12.3-7.1,16.9-15.1,16.9-29.3
			V64.8c0-13.6-8.3-19.9-14.6-23.6L60.2,26.8c20.8-9.7,44.9-8.7,64.7,2.7c26.6,15.4,40.1,46.4,33.3,76.1l-52.6,52.6
			C88.3,162.3,70.4,159.6,54.9,150.7z M361.4,55c19.3-33.4,62.2-44.9,95.6-25.6c16.2,9.3,27.8,24.4,32.6,42.5
			c4.8,18,2.4,36.9-7,53.1c-12.7,22-36.1,35-60.7,35c-5.1,0-10.3-0.6-15.5-1.7l-52.7-52.5C349.8,88.4,352.4,70.5,361.4,55z
			 M150.6,457c-19.3,33.4-62.2,44.9-95.6,25.6c-16.2-9.3-27.8-24.4-32.6-42.5c-4.8-18-2.4-36.9,7-53.1c12.7-22,36.1-35,60.7-35
			c5.1,0,10.3,0.6,15.5,1.7l52.7,52.5C162.2,423.6,159.6,441.5,150.6,457L150.6,457z M167.3,387.1l-42.5-42.4l219.9-219.8l42.5,42.4
			L167.3,387.1z M270.1,312.5l42.4-42.4l74.6,74.6l-42.4,42.4L270.1,312.5z M466.6,401.5c-6.3-3.6-15.9-7.6-27.7-0.8l-10,5.7
			c-12.3,7.1-16.9,15.1-16.9,29.3v11.5c0,13.6,8.3,19.9,14.6,23.6l25.2,14.5c-20.8,9.7-44.9,8.7-64.7-2.7
			c-26.6-15.4-40.1-46.4-33.3-76.1l52.6-52.6c17.3-4,35.2-1.4,50.7,7.6c19.9,11.5,32.8,31.8,34.7,54.7L466.6,401.5z"/>
		<path class="st0" d="M387,116l30,17.3c1.5,0.9,3.3,1.3,5,1.3c1.7,0,3.5-0.4,5-1.3l30-17.3c3.1-1.8,5-5.1,5-8.7V72.7
			c0-3.6-1.9-6.9-5-8.7l-30-17.3c-3.1-1.8-6.9-1.8-10,0L387,64c-3.1,1.8-5,5.1-5,8.7v34.6C382,110.9,383.9,114.2,387,116L387,116z
			 M402,78.5l20-11.5l20,11.5v23.1l-20,11.5l-20-11.5V78.5z"/>
		<path class="st0" d="M125,396l-30-17.3c-3.1-1.8-6.9-1.8-10,0L55,396c-3.1,1.8-5,5.1-5,8.7v34.6c0,3.6,1.9,6.9,5,8.7l30,17.3
			c1.5,0.9,3.3,1.3,5,1.3s3.5-0.4,5-1.3l30-17.3c3.1-1.8,5-5.1,5-8.7v-34.6C130,401.1,128.1,397.8,125,396z M110,433.5l-20,11.5
			l-20-11.5v-23.1l20-11.5l20,11.5V433.5z"/>
		<path class="st0" d="M210.8,164.3c5.5,0,10-4.5,10-10c0-5.5-4.5-10-10-10h0c-5.5,0-10,4.5-10,10
			C200.8,159.8,205.3,164.3,210.8,164.3z"/>
	</g>
</g>
</svg>
