<?xml version="1.0" encoding="utf-8"?>
<!-- Generator: Adobe Illustrator 24.0.0, SVG Export Plug-In . SVG Version: 6.00 Build 0)  -->
<svg version="1.1" id="Layer_1" xmlns="http://www.w3.org/2000/svg" xmlns:xlink="http://www.w3.org/1999/xlink" x="0px" y="0px"
	 viewBox="0 0 512 512" style="enable-background:new 0 0 512 512;" xml:space="preserve">
<style type="text/css">
	.st0{fill:#FFFFFF;}
</style>
<g>
	<g>
		<path class="st0" d="M486.4,204.8h-32.3c-4.8-18.5-12.1-36.2-21.8-52.7l22.8-22.8c10-10,10-26.2,0-36.2l-36.2-36.2
			c-4.8-4.8-11.3-7.5-18.1-7.5c-6.8,0-13.3,2.7-18.1,7.5l-22.8,22.8c-16.4-9.7-34.2-17-52.7-21.8V25.6c0-14.1-11.5-25.6-25.6-25.6
			h-51.2c-14.1,0-25.6,11.5-25.6,25.6v32.3c-18.5,4.8-36.2,12.1-52.7,21.8l-22.8-22.8c-4.8-4.8-11.3-7.5-18.1-7.5
			s-13.3,2.7-18.1,7.5L56.9,93.1c-10,10-10,26.2,0,36.2l22.8,22.8c-9.7,16.4-17,34.2-21.8,52.7H25.6C11.5,204.8,0,216.3,0,230.4
			v51.2c0,14.1,11.5,25.6,25.6,25.6h32.3c4.8,18.5,12.1,36.2,21.8,52.7l-22.8,22.8c-10,10-10,26.2,0,36.2l36.2,36.2
			c5,5,11.6,7.5,18.1,7.5s13.1-2.5,18.1-7.5l22.8-22.8c16.4,9.7,34.2,17,52.7,21.8v32.3c0,14.1,11.5,25.6,25.6,25.6h51.2
			c14.1,0,25.6-11.5,25.6-25.6v-32.3c18.5-4.8,36.2-12.1,52.7-21.8l22.8,22.8c5,5,11.6,7.5,18.1,7.5s13.1-2.5,18.1-7.5l36.2-36.2
			c10-10,10-26.2,0-36.2l-22.8-22.8c9.7-16.4,17-34.2,21.8-52.7h32.3c14.1,0,25.6-11.5,25.6-25.6v-51.2
			C512,216.3,500.5,204.8,486.4,204.8z M486.4,281.6h-53.2c-4.4,30.3-16.2,58.1-33.8,81.6l37.6,37.6L400.8,437l-37.6-37.6
			c-23.4,17.5-51.2,29.4-81.6,33.8v53.2h-51.2v-53.2c-30.3-4.4-58.1-16.2-81.6-33.8L111.2,437L75,400.8l37.6-37.6
			c-17.5-23.4-29.4-51.2-33.8-81.6H25.6v-51.2h53.2c4.4-30.3,16.2-58.1,33.8-81.6L75,111.2L111.2,75l37.6,37.6
			c23.4-17.5,51.2-29.4,81.6-33.8V25.6h51.2v53.2c30.3,4.4,58.1,16.2,81.6,33.8L400.8,75l36.2,36.2l-37.6,37.6
			c17.5,23.4,29.4,51.2,33.8,81.6h53.2V281.6z"/>
	</g>
</g>
<g>
	<g>
		<path class="st0" d="M256,128c-70.7,0-128,57.3-128,128s57.3,128,128,128s128-57.3,128-128S326.7,128,256,128z M256,358.4
			c-56.5,0-102.4-45.9-102.4-102.4S199.5,153.6,256,153.6S358.4,199.5,358.4,256S312.5,358.4,256,358.4z"/>
	</g>
</g>
</svg>
