<?xml version="1.0" encoding="utf-8"?>
<!-- Generator: Adobe Illustrator 13.0.0, SVG Export Plug-In . SVG Version: 6.00 Build 14948)  -->
<!DOCTYPE svg PUBLIC "-//W3C//DTD SVG 1.1//EN" "http://www.w3.org/Graphics/SVG/1.1/DTD/svg11.dtd">
<svg version="1.1" id="Layer_1" xmlns="http://www.w3.org/2000/svg" xmlns:xlink="http://www.w3.org/1999/xlink" x="0px" y="0px"
	 width="799.71px" height="425.932px" viewBox="0 0 799.71 425.932" enable-background="new 0 0 799.71 425.932"
	 xml:space="preserve">
<g>
	<polygon fill-rule="evenodd" clip-rule="evenodd" fill="#FFFFFF" points="28.923,406.07 769.073,406.07 769.073,420.306 
		28.923,420.306 28.923,406.07 	"/>
	<polygon fill-rule="evenodd" clip-rule="evenodd" fill="#FFFFFF" points="51.458,168.844 51.458,154.611 746.539,154.611 
		746.539,168.844 51.458,168.844 	"/>
	<polygon fill-rule="evenodd" clip-rule="evenodd" fill="#FFFFFF" points="51.458,389.467 51.458,377.603 746.539,377.603 
		746.539,389.467 51.458,389.467 	"/>
	<path fill-rule="evenodd" clip-rule="evenodd" fill="#FFFFFF" d="M522.515,345.947c-17.558,8.811-37.994,13.16-61.313,13.273
		c-29.737,0-53.19-7.896-70.48-23.915c-17.031-15.905-25.547-37.642-25.676-65.33c0-27.924,8.252-49.66,24.759-65.221
		c16.506-15.562,39.563-23.342,69.434-23.342c15.197,0,35.111,2.747,59.868,8.467v32.38h-16.112l-0.13-2.292
		c0-2.284,0-4.458-0.263-6.746c0-7.438-3.932-13.271-11.921-17.62c-7.859-4.349-18.606-6.521-32.491-6.521
		c-19.65,0-35.24,7.323-47.031,21.967c-11.66,14.646-17.424,34.211-17.554,58.693c0,24.49,6.811,43.595,20.566,57.557
		c13.625,13.727,32.62,20.594,57.252,20.594c15.982,0,33.013-4.235,51.093-12.925V345.947L522.515,345.947z"/>
	<path fill-rule="evenodd" clip-rule="evenodd" fill="#FFFFFF" d="M581.257,357.155l-41.399-141.188
		c-3.932-12.929-6.422-20.023-7.601-21.283c-1.044-1.144-5.762-1.715-14.277-1.828l-2.753-0.231v-6.979h69.436v6.979h-2.49
		c-8.386,0-13.755,0.344-16.111,1.146c-2.228,0.687-3.276,2.401-3.406,5.262c0,2.519,1.179,8.123,3.799,16.934l28.692,98.518
		l44.671-126.779h9.172l44.675,130.318L727.2,216.08c3.668-11.554,5.503-17.962,5.632-19.448c0-2.632-6.811-3.891-20.437-4.007
		h-2.356v-6.979h53.32v6.979l-2.36,0.231c-9.301,0.456-14.407,1.144-15.59,2.174c-0.919,0.913-3.664,7.892-8.252,20.937
		l-47.425,141.188h-8.778l-45.725-130.32l-44.934,130.32H581.257L581.257,357.155z"/>
	<path fill-rule="evenodd" clip-rule="evenodd" fill="#FFFFFF" d="M237.958,185.646l110.572,131.47V215.28
		c0-10.297-0.919-16.476-3.015-18.537c-1.834-1.943-8.123-3.203-18.866-3.887l-2.358-0.231v-6.979h60.396v6.979l-2.49,0.231
		c-10.611,0.571-16.899,1.828-18.865,3.887c-1.834,1.948-2.751,8.127-2.881,18.537v141.996h-9.301L230.884,215.393v109.959
		c0,10.293,0.917,16.473,2.883,18.537c1.832,1.831,8.121,3.086,18.995,3.888l2.359,0.113v7.095h-60.658v-7.095l2.359-0.113
		c10.743-0.688,17.031-1.943,18.997-3.888c1.832-1.951,2.75-8.122,2.881-18.537V215.28c0-10.41-0.014-21.234-10.058-21.234
		c-9.832,0-9.979,10.708-9.979,21.234v70.94c0,15.671-0.919,27.114-3.015,34.557c-1.966,7.32-5.896,14.066-12.052,20.48
		c-11.267,11.896-28.823,17.85-52.667,17.963c-47.949,0-71.924-22.546-72.054-67.622V215.28c0-10.297-0.917-16.476-3.013-18.537
		c-1.834-1.943-7.993-3.203-18.734-3.887l-2.49-0.231v-6.979h76.378v6.979l-2.358,0.231c-10.743,0.571-17.031,1.828-18.997,3.887
		c-1.834,1.833-2.75,8.012-2.881,18.537v72.423c0,17.509,0.522,28.952,1.571,34.329c1.049,5.265,3.667,10.302,7.862,15.217
		c8.384,9.613,20.96,14.416,37.99,14.416c15.723,0,28.3-4.114,37.994-12.585c5.24-4.689,8.647-9.84,10.35-15.671
		c1.573-5.726,2.358-15.905,2.49-30.669v-77.46c0-10.297-0.917-16.476-3.015-18.537c-1.834-1.943-8.121-3.203-18.865-3.887
		l-2.357-0.231v-6.979H237.958L237.958,185.646z"/>
	<path fill-rule="evenodd" clip-rule="evenodd" fill="#FFFFFF" d="M399,57.182l-218.324,65.889h-23.722L399,50.063l242.045,73.008
		H617.32L399,57.182L399,57.182z M687.23,123.071L399,35.8l-288.234,87.271H53.83L399,19.194l345.166,103.877H687.23L687.23,123.071
		z M766.704,140.204H31.293L11.13,123.881L399,7.356l387.865,116.524L766.704,140.204L766.704,140.204z"/>
	<path fill-rule="evenodd" clip-rule="evenodd" fill="#FFFFFF" d="M712.78,340.893c0-8.414,6.338-14.828,14.477-14.828
		c8.042,0,14.391,6.414,14.391,14.828c0,8.561-6.349,14.917-14.391,14.917C719.118,355.81,712.78,349.454,712.78,340.893
		L712.78,340.893z M727.256,358.75c9.686,0,17.971-7.556,17.971-17.857c0-10.204-8.285-17.776-17.971-17.776
		c-9.787,0-18.056,7.572-18.056,17.776C709.201,351.195,717.469,358.75,727.256,358.75L727.256,358.75z M733.415,344.23
		c-0.421,2.64-2.583,4.47-5.547,4.47c-4.28,0-6.912-3.668-6.912-7.896c0-4.373,2.349-7.718,6.771-7.718
		c2.964,0,5.126,1.692,5.688,4.284h3.15c-0.655-4.795-4.373-7.386-8.888-7.386c-6.394,0-10.306,4.607-10.306,10.859
		c0,6.163,4.103,10.966,10.496,10.966c4.324,0,7.852-2.924,8.746-7.58H733.415L733.415,344.23z"/>
</g>
</svg>
