<svg id="Layer_1" data-name="Layer 1" xmlns="http://www.w3.org/2000/svg" viewBox="0 0 392 392"><defs><style>.cls-1{opacity:0.1;}.cls-2,.cls-3{fill:#fff;}.cls-2{fill-rule:evenodd;}</style></defs><title>VASC_bg</title><g class="cls-1"><path class="cls-2" d="M13.8,225.1h94.43v1.81H13.8Zm2.88-30.27V193h88.68v1.81Zm0,28.15v-1.51h88.68V223Zm60.09-5.55A17.36,17.36,0,0,1,69,219.12q-5.69,0-9-3.05a10.94,10.94,0,0,1-3.28-8.34c0-3.56,1.06-6.33,3.16-8.32s5-3,8.86-3a36.12,36.12,0,0,1,7.64,1.08v4.14H74.28v-.3a8.24,8.24,0,0,0,0-.86,2.51,2.51,0,0,0-1.53-2.25,8.62,8.62,0,0,0-4.14-.83,7.31,7.31,0,0,0-6,2.8,11.74,11.74,0,0,0-2.24,7.49A10,10,0,0,0,63,215.05c1.74,1.75,4.16,2.62,7.31,2.62A15,15,0,0,0,76.77,216v1.41Z"/><path class="cls-2" d="M84.27,218.86l-5.28-18a13.53,13.53,0,0,0-1-2.71,3.9,3.9,0,0,0-1.82-.24l-.35,0V197H84.7v.89h-.31a8.67,8.67,0,0,0-2.06.14.63.63,0,0,0-.43.67,10.1,10.1,0,0,0,.48,2.16L86,213.41l5.7-16.17h1.17l5.7,16.63,4.28-13c.47-1.48.7-2.29.72-2.48,0-.34-.87-.5-2.61-.51h-.3V197h6.8v.89l-.3,0a5.43,5.43,0,0,0-2,.28,16.73,16.73,0,0,0-1,2.67l-6,18H97l-5.83-16.63-5.74,16.63ZM40.47,197l14.11,16.77v-13c0-1.32-.12-2.11-.39-2.37a4.67,4.67,0,0,0-2.4-.5l-.3,0V197h7.7v.89l-.32,0a4.59,4.59,0,0,0-2.4.5,4.56,4.56,0,0,0-.37,2.37v18.11H54.91l-15.34-18.1v14c0,1.31.11,2.1.37,2.36a4.94,4.94,0,0,0,2.42.5l.3,0v.9H34.92v-.9l.3,0a4.93,4.93,0,0,0,2.43-.5A4.53,4.53,0,0,0,38,214.8v-14c0-1.33,0-2.71-1.28-2.71s-1.27,1.36-1.27,2.71v9.05a17.61,17.61,0,0,1-.39,4.41,6,6,0,0,1-1.54,2.61q-2.14,2.28-6.71,2.29-9.18,0-9.2-8.63v-9.73c0-1.32-.11-2.11-.38-2.37a4.66,4.66,0,0,0-2.39-.5l-.32,0V197h9.74v.89l-.3,0a4.62,4.62,0,0,0-2.42.5,4.56,4.56,0,0,0-.37,2.37V210a29.87,29.87,0,0,0,.2,4.38,4.33,4.33,0,0,0,1,1.94,6.08,6.08,0,0,0,4.84,1.84,7.08,7.08,0,0,0,4.85-1.61,4.26,4.26,0,0,0,1.32-2,18,18,0,0,0,.32-3.91v-9.88c0-1.32-.12-2.11-.39-2.37a4.67,4.67,0,0,0-2.4-.5l-.3,0V197ZM61,180.59,33.16,189h-3L61,179.68,91.9,189h-3ZM97.79,189,61,177.86,24.24,189H17l44-13.25,44,13.25Zm10.14,2.19H14.1l-2.57-2.09L61,174.23l49.48,14.86-2.57,2.09Zm-6.88,25.6a1.84,1.84,0,1,1,1.85,1.91A1.84,1.84,0,0,1,101.05,216.78Zm1.85,2.28a2.28,2.28,0,1,0-2.31-2.28,2.27,2.27,0,0,0,2.31,2.28Zm.78-1.85a.68.68,0,0,1-.71.57.93.93,0,0,1-.88-1,.87.87,0,0,1,.87-1,.69.69,0,0,1,.72.54h.4a1.06,1.06,0,0,0-1.13-.94,1.28,1.28,0,0,0-1.31,1.39,1.32,1.32,0,0,0,1.33,1.4,1.13,1.13,0,0,0,1.12-1Z"/><path class="cls-2" d="M93.28,71.24a24.49,24.49,0,0,1-.68,3.37,32.08,32.08,0,0,1-1.08,3.26c-.49,1.09-1.19,1.83-2,1.77-1.25-.1-3.75-2.44-4.2-2.92s-4-4.36-4.71-5.13c0-.12.1-.25.13-.41,1-.29,6.09-1.92,6.63-2.08s4-.93,5.09-.42c.74.35,1,1.34.84,2.56ZM86.42,86.68a23.24,23.24,0,0,1-2.31,2.57,26.79,26.79,0,0,1-2.56,2.3c-1,.71-2,1-2.62.51-1-.7-2-4-2.18-4.61s-1.32-5.83-1.51-6.79a3.09,3.09,0,0,0,.29-.32l6.79,1.54C83,82,86.23,83,87,84.06c.44.67.12,1.63-.55,2.62ZM74.7,88.16c-.1.25,0,.44-.52.77s-.67.12-1,.06a54,54,0,0,1-5.35-3.72,20.62,20.62,0,0,0,6.28-3.62,54,54,0,0,1,.55,6.51Zm-2,8.49a22.39,22.39,0,0,1-3.27,1,26.4,26.4,0,0,1-3.36.71c-1.18.13-2.21-.1-2.56-.84-.52-1.15.25-4.48.45-5.12s1.76-5.64,2-6.63l.44-.1c.74.67,4.71,4.33,5.1,4.71s2.82,2.95,2.91,4.2c.1.8-.67,1.5-1.76,2ZM61.85,92c-.19.19-.19.42-.83.42s-.64-.23-.87-.42a58.17,58.17,0,0,1-2.75-5.89,22.26,22.26,0,0,0,3.62.32,23.08,23.08,0,0,0,3.62-.32A57,57,0,0,1,61.85,92Zm-3.4,5.55c-.35.73-1.34.92-2.53.83a21.78,21.78,0,0,1-3.36-.71,27.18,27.18,0,0,1-3.27-1c-1.12-.48-1.86-1.22-1.79-2,.13-1.25,2.46-3.75,2.91-4.2l5.13-4.71.41.1c.33,1,1.93,6.12,2.09,6.63s1,4,.41,5.13ZM47.88,81.65a20.3,20.3,0,0,0,6.28,3.62c-1.25.93-4.9,3.66-5.38,3.72-.26.06-.39.26-.93-.06s-.42-.52-.51-.77a53.67,53.67,0,0,1,.54-6.51Zm-2.59,5.8c-.16.61-1.19,3.91-2.21,4.61-.68.49-1.64.16-2.63-.51a25.16,25.16,0,0,1-2.56-2.3,33.74,33.74,0,0,1-2.28-2.57c-.7-1-1-2-.54-2.62.7-1,4-2,4.61-2.18l6.79-1.54.32.32c-.22,1-1.37,6.25-1.5,6.79ZM30.52,77.87a24.62,24.62,0,0,1-1.09-3.26s-.55-2.12-.71-3.37.13-2.21.87-2.56c1.12-.55,4.48.25,5.09.42s5.67,1.76,6.63,2.08c0,.16.1.29.13.41l-4.71,5.13c-.44.48-3,2.82-4.23,2.91-.8.07-1.47-.7-2-1.76ZM28.72,61a27.75,27.75,0,0,1,.71-3.36,31.71,31.71,0,0,1,1.09-3.24c.48-1.12,1.18-1.86,2-1.79,1.25.09,3.79,2.46,4.23,2.91l4.71,5.13c0,.13-.09.29-.13.42-1,.32-6.08,1.92-6.63,2.08s-4,1-5.09.41c-.74-.35-1-1.34-.87-2.56Zm64.6,0a26.47,26.47,0,0,0-.7-3.36,31.71,31.71,0,0,0-1.09-3.24c-.48-1.12-1.19-1.86-2-1.79-1.25.09-3.78,2.46-4.22,2.91l-4.71,5.13c0,.13.09.29.12.42,1,.32,6.09,1.92,6.64,2.08s4,1,5.09.41c.74-.35,1-1.34.86-2.56ZM35.61,45.58A23.71,23.71,0,0,1,37.89,43a27.36,27.36,0,0,1,2.56-2.28c1-.73,1.95-1,2.63-.54,1,.7,2.05,4,2.21,4.61s1.28,5.83,1.5,6.79a1.94,1.94,0,0,1-.32.32c-1-.22-6.21-1.41-6.79-1.53s-3.91-1.16-4.61-2.18c-.48-.68-.16-1.64.54-2.63Zm11.73-1.47c.09-.26,0-.45.51-.77a.84.84,0,0,1,.93-.07A52.1,52.1,0,0,1,54.16,47a20.3,20.3,0,0,0-6.28,3.62,53.53,53.53,0,0,1-.54-6.5Zm1.95-8.49a22,22,0,0,1,3.27-1.06,25.25,25.25,0,0,1,3.36-.7c1.19-.13,2.18.09,2.53.86.55,1.12-.22,4.45-.41,5.09S56.28,45.45,56,46.45l-.42.09c-.74-.67-4.71-4.29-5.13-4.71s-2.78-2.94-2.91-4.19c-.07-.8.7-1.51,1.79-2Zm10.86,4.61c.23-.19.23-.42.87-.42s.64.23.83.42a58,58,0,0,1,2.79,5.89A23.08,23.08,0,0,0,61,45.8a22.26,22.26,0,0,0-3.62.32,59.24,59.24,0,0,1,2.75-5.89Zm3.4-5.51c.35-.77,1.38-1,2.56-.86a21,21,0,0,1,3.36.7,27.78,27.78,0,0,1,3.27,1.06c1.09.48,1.86,1.21,1.76,2-.09,1.24-2.43,3.78-2.91,4.19s-4.36,4-5.09,4.71l-.45-.09c-.29-1-1.89-6.09-2-6.64s-1-4-.45-5.09Zm10.6,15.89A20.62,20.62,0,0,0,67.87,47a55.81,55.81,0,0,1,5.35-3.72c.29-.06.42-.25,1,.07s.42.51.52.77a53.88,53.88,0,0,1-.55,6.5ZM76.52,53A60.6,60.6,0,0,1,83,52.44c.25.09.48,0,.8.54s.09.67,0,.93a52.27,52.27,0,0,1-3.72,5.35A20.42,20.42,0,0,0,76.52,53ZM81,62.5a59.26,59.26,0,0,1,5.92,2.78c.16.23.42.23.42.87s-.26.61-.42.83A61.27,61.27,0,0,1,81,69.77a20.81,20.81,0,0,0,0-7.27ZM80.14,73a53.4,53.4,0,0,1,3.72,5.35c.06.26.29.39,0,1s-.55.41-.8.51a61,61,0,0,1-6.51-.55A20.31,20.31,0,0,0,80.14,73ZM45.51,79.28a62.37,62.37,0,0,1-6.5.55c-.26-.1-.48,0-.8-.55s-.1-.67-.07-.93A60.38,60.38,0,0,1,41.89,73,19.81,19.81,0,0,0,45.51,79.28ZM41,69.77A55.36,55.36,0,0,1,35.1,67c-.16-.22-.42-.22-.42-.83s.26-.64.42-.87A52.85,52.85,0,0,1,41,62.5a19.38,19.38,0,0,0-.36,3.65A19.07,19.07,0,0,0,41,69.77Zm.86-10.51a58.94,58.94,0,0,1-3.75-5.35c0-.26-.25-.38.07-.93s.54-.45.8-.54a61.66,61.66,0,0,1,6.5.54A19.81,19.81,0,0,0,41.89,59.26ZM61,85.05A18.92,18.92,0,1,1,80,66.15,18.93,18.93,0,0,1,61,85.05ZM76.75,44.81c.16-.61,1.15-3.91,2.18-4.61.67-.48,1.66-.16,2.62.54A20.74,20.74,0,0,1,84.11,43a30.91,30.91,0,0,1,2.31,2.56c.71,1,1,2,.55,2.63-.74,1-4,2-4.65,2.18l-6.79,1.53c-.1-.09-.19-.22-.29-.32C75.43,50.64,76.62,45.36,76.75,44.81ZM96.67,63.59c-2.53-2.86-4.26-9.33-3.49-13.08.39-1.89,2.15-2.72,4.52-4.1l-1.28-2.17c-2.37,1.34-4,2.46-5.8,1.85-3.62-1.21-8.36-5.92-9.55-9.58-.61-1.82.48-3.42,1.86-5.79l-2.21-1.29c-1.38,2.41-2.21,4.14-4.07,4.52-3.75.8-10.22-1-13.1-3.49-1.41-1.28-1.25-3.2-1.25-6H59.74c0,2.76.16,4.68-1.29,6C55.6,33,49.13,34.75,45.38,34c-1.89-.38-2.72-2.11-4.07-4.48L39.1,30.72c1.38,2.37,2.47,4,1.86,5.79-1.22,3.66-5.92,8.37-9.58,9.58-1.79.61-3.39-.51-5.76-1.89l-1.28,2.21c2.37,1.38,4.13,2.21,4.51,4.1.77,3.75-1,10.19-3.52,13.07-1.25,1.45-3.21,1.29-5.93,1.29V67.4c2.72,0,4.68-.16,5.93,1.28,2.56,2.88,4.29,9.32,3.52,13.07-.38,1.89-2.14,2.72-4.51,4.1l1.28,2.21c2.37-1.38,4-2.5,5.76-1.89,3.66,1.22,8.36,6,9.58,9.58.61,1.82-.48,3.43-1.86,5.8l2.21,1.28c1.35-2.37,2.18-4.13,4.07-4.52,3.75-.77,10.22,1,13.07,3.49,1.45,1.28,1.29,3.21,1.29,6H62.3c0-2.75-.16-4.68,1.25-6,2.88-2.53,9.35-4.26,13.1-3.49,1.86.39,2.69,2.15,4.07,4.52l2.21-1.28c-1.38-2.37-2.47-4-1.89-5.8,1.22-3.62,6-8.36,9.58-9.58,1.82-.61,3.43.51,5.8,1.89l1.28-2.21c-2.37-1.38-4.13-2.21-4.52-4.1-.77-3.75,1-10.19,3.49-13.07,1.28-1.44,3.24-1.28,6-1.28V64.87c-2.72,0-4.68.16-6-1.28Zm-24.41-2V60.41c0-.73.29-1.31,1.12-1.31h1.44V56.57c-.28,0-1.28,0-2.17,0-2.15,0-3.5.93-3.5,3.39V61.6h-.44l-5.84,0c-3.61,0-4.8,1.51-4.8,3.27,0,4.39,7.18,3.62,7.18,5.25,0,.45-.45,1-2,1l-6,0V65.25c0-2.63-1.83-3.91-4.39-3.88a3.79,3.79,0,0,0-3.59,2H49.2V61.6h-3V73.48h3.1V66.66a2.44,2.44,0,0,1,2.47-2.75,2,2,0,0,1,2.34,2.33v7.24h9c2.43,0,5.12-.77,5.12-3.46,0-3.49-7.24-3.33-7.24-4.93,0-.51.39-1.25,2.09-1.25h6.08v9.68h3.11V63.84h2.63V61.6Z"/><path class="cls-3" d="M22.81,339.52,19,313.91h5.24l.91,9.48c.32,3.3.72,7,.9,10.27h.2c.16-3.26.57-6.77.85-10.23l.8-9.52H33l-3.79,25.61Z"/><path class="cls-3" d="M45.55,333.42l-.63,6.1h-5l3.62-25.61h7.34l3.71,25.61H49.44l-.7-6.1Zm2.77-4.34c-.36-3.28-.87-8.26-1.11-10.72H47c-.09,1.79-.69,7.55-1,10.72Z"/><path class="cls-3" d="M68.07,331.62v1.78c0,1.68.42,2.46,1.54,2.46s1.4-1.16,1.4-2.37c0-2.41-.45-3.11-3.07-5.3-2.88-2.44-4.37-3.89-4.37-7.66s1.22-7,6.07-7c5.15,0,5.91,3.51,5.91,6.44v1.48H70.9v-1.54c0-1.55-.26-2.32-1.23-2.32s-1.21.78-1.21,2.23.29,2.31,2.4,4c3.77,3,5.12,4.62,5.12,8.84,0,4-1.37,7.31-6.46,7.31-4.88,0-6.28-2.95-6.28-6.74v-1.54Z"/><path class="cls-3" d="M98,331.16v1.38c0,3.23-.6,7.36-6.47,7.36-4.34,0-6.22-2.31-6.22-7V320.32c0-4.45,2.22-6.8,6.33-6.8,5.4,0,6.28,3.56,6.28,6.92V322H93v-2.18c0-1.41-.3-2.13-1.32-2.13s-1.35.68-1.35,2.13V333.4c0,1.37.23,2.3,1.34,2.3s1.38-.78,1.38-2.41v-2.13Z"/><path class="cls-3" d="M17.54,353.87l-1.27-7.33h.84l.49,3.28c.15,1,.36,2.28.43,3h0c.06-.73.29-2,.44-3l.49-3.31h.83l-1.28,7.33Z"/><path class="cls-3" d="M21.27,348.74v5.13h-.55v-5.13Z"/><path class="cls-3" d="M22.88,351.47v2.4h-.55v-5.13h.9c.77,0,1.15.33,1.15,1.18v.23c0,.7-.25,1-.52,1.08.32.12.47.37.47,1.06a13.18,13.18,0,0,0,.05,1.58h-.53a12.92,12.92,0,0,1-.05-1.54c0-.67-.1-.86-.6-.86Zm0-.46h.33c.49,0,.62-.28.62-.83V350c0-.47-.13-.75-.64-.75h-.31Z"/><path class="cls-3" d="M25.77,349.25h-.83v-.51h2.2v.51h-.83v4.62h-.54Z"/><path class="cls-3" d="M28.32,348.74v4c0,.42.15.71.54.71s.52-.28.52-.71v-4h.55v4c0,.79-.35,1.23-1.08,1.23s-1.07-.4-1.07-1.22v-4Z"/><path class="cls-3" d="M31.43,352.23l-.24,1.64h-.55l.84-5.13h.77l.88,5.13h-.57l-.26-1.64Zm.8-.5c-.18-1.13-.31-2-.36-2.49h0c0,.4-.2,1.55-.34,2.49Z"/><path class="cls-3" d="M33.88,348.74h.54v4.64h1.29l-.06.49H33.88Z"/><path class="cls-3" d="M39.18,351.53l-.35,2.34H38l1.2-7.33h1.11l1.26,7.33h-.82l-.38-2.34Zm1.13-.72c-.25-1.61-.44-2.86-.51-3.55h0c0,.56-.29,2.21-.49,3.55Z"/><path class="cls-3" d="M44.5,352.4v.17c0,.65-.11,1.37-1,1.37s-1-.63-1-1.39V350c0-.83.35-1.28,1-1.28.86,0,1,.61,1,1.28v.2h-.55v-.24c0-.4-.07-.74-.47-.74s-.48.3-.48.76v2.66c0,.51.11.85.49.85s.48-.35.48-.83v-.21Z"/><path class="cls-3" d="M47.37,352.4v.17c0,.65-.11,1.37-1,1.37s-1-.63-1-1.39V350c0-.83.35-1.28,1.05-1.28.86,0,1,.61,1,1.28v.2H46.8v-.24c0-.4-.07-.74-.47-.74s-.48.3-.48.76v2.66c0,.51.11.85.49.85s.48-.35.48-.83v-.21Z"/><path class="cls-3" d="M49.9,351.38H48.75v2h1.3l-.07.5H48.2v-5.13H50v.51H48.75v1.63H49.9Z"/><path class="cls-3" d="M51.21,352.42v.3c0,.48.17.74.53.74s.51-.26.51-.83a1.3,1.3,0,0,0-.67-1.25,1.57,1.57,0,0,1-.83-1.44c0-.65.2-1.28,1-1.27s1,.51,1,1.16v.24h-.55v-.22c0-.43-.08-.7-.43-.7s-.44.3-.44.71.09.65.56,1a1.76,1.76,0,0,1,.94,1.69c0,.72-.21,1.38-1.07,1.38s-1.06-.55-1.06-1.22v-.3Z"/><path class="cls-3" d="M54.08,352.42v.3c0,.48.16.74.52.74s.51-.26.51-.83a1.3,1.3,0,0,0-.67-1.25,1.56,1.56,0,0,1-.82-1.44c0-.65.19-1.28,1-1.27s1,.51,1,1.16v.24H55v-.22c0-.43-.09-.7-.44-.7s-.44.3-.44.71.1.65.57,1a1.75,1.75,0,0,1,.93,1.69c0,.72-.2,1.38-1.07,1.38s-1.06-.55-1.06-1.22v-.3Z"/><path class="cls-3" d="M58.87,349.25H58v-.51h2.2v.51h-.83v4.62h-.54Z"/><path class="cls-3" d="M63,350v2.58c0,.9-.37,1.36-1.13,1.36s-1.09-.51-1.09-1.35V350c0-.87.4-1.33,1.13-1.33S63,349.19,63,350Zm-1.66,0v2.66c0,.58.21.81.56.81s.55-.22.55-.83V350c0-.55-.19-.81-.56-.81S61.34,349.42,61.34,350Z"/><path class="cls-3" d="M66.43,351.8v.43c0,.69.24,1.06.75,1.06s.73-.38.73-1.19a1.87,1.87,0,0,0-1-1.79,2.23,2.23,0,0,1-1.18-2.06c0-.93.28-1.82,1.43-1.81s1.38.73,1.38,1.66v.34H67.8v-.32c0-.61-.12-1-.62-1s-.63.44-.63,1,.14.94.81,1.45A2.5,2.5,0,0,1,68.7,352c0,1-.3,2-1.53,2s-1.52-.77-1.52-1.74v-.42Z"/><path class="cls-3" d="M70.18,349.25h-.83v-.51h2.2v.51h-.82v4.62h-.55Z"/><path class="cls-3" d="M73.93,351.38H72.78v2h1.31l-.07.5H72.24v-5.13H74v.51H72.78v1.63h1.15Z"/><path class="cls-3" d="M77.36,351.73c0-.94,0-2,0-2.5h0c-.13.86-.52,3.11-.8,4.64h-.53c-.21-1.32-.61-3.73-.74-4.65h0c0,.6,0,1.76,0,2.64v2h-.51v-5.13h.81c.28,1.52.62,3.39.69,4.05h0c.08-.64.47-2.62.75-4.05h.79v5.13h-.53Z"/><path class="cls-3" d="M83.85,351.76V352c0,.93-.17,1.95-1.49,1.95s-1.49-.89-1.49-2v-3.73c0-1.17.51-1.82,1.5-1.82,1.23,0,1.45.87,1.45,1.83v.29H83v-.34c0-.58-.09-1.07-.67-1.07s-.69.44-.69,1.08V352c0,.73.16,1.22.71,1.22s.67-.5.67-1.19v-.31Z"/><path class="cls-3" d="M85.37,352.23l-.24,1.64h-.55l.84-5.13h.78l.87,5.13H86.5l-.26-1.64Zm.8-.5c-.18-1.13-.31-2-.36-2.49h0c0,.4-.2,1.55-.34,2.49Z"/><path class="cls-3" d="M88.36,351.47v2.4h-.54v-5.13h.89c.77,0,1.15.33,1.15,1.18v.23c0,.7-.24,1-.52,1.08.33.12.48.37.48,1.06a13.18,13.18,0,0,0,.05,1.58h-.54a12.92,12.92,0,0,1,0-1.54c0-.67-.09-.86-.6-.86Zm0-.46h.34c.48,0,.61-.28.61-.83V350c0-.47-.13-.75-.64-.75h-.31Z"/><path class="cls-3" d="M92.49,351.38H91.34v2h1.31l-.07.5H90.8v-5.13h1.76v.51H91.34v1.63h1.15Z"/><path class="cls-3" d="M95.08,351.38H93.93v2h1.31l-.08.5H93.38v-5.13h1.77v.51H93.93v1.63h1.15Z"/><path class="cls-3" d="M96.52,351.47v2.4H96v-5.13h.9c.77,0,1.15.33,1.15,1.18v.23c0,.7-.25,1-.52,1.08.32.12.47.37.47,1.06a15.65,15.65,0,0,0,0,1.58h-.53a12.92,12.92,0,0,1,0-1.54c0-.67-.09-.86-.6-.86Zm0-.46h.33c.49,0,.62-.28.62-.83V350c0-.47-.13-.75-.64-.75h-.31Z"/><path class="cls-3" d="M99.34,352.42v.3c0,.48.17.74.53.74s.51-.26.51-.83a1.3,1.3,0,0,0-.67-1.25,1.57,1.57,0,0,1-.83-1.44c0-.65.2-1.28,1-1.27s1,.51,1,1.16v.24h-.54v-.22c0-.43-.08-.7-.43-.7s-.44.3-.44.71.09.65.56,1a1.76,1.76,0,0,1,.94,1.69c0,.72-.21,1.38-1.07,1.38s-1.06-.55-1.06-1.22v-.3Z"/><path class="cls-2" d="M155.46,355.33h94.43v1.81H155.46Zm2.87-30.27v-1.82H247v1.82Zm0,28.15v-1.52H247v1.52Zm60.1-5.56a17.39,17.39,0,0,1-7.82,1.7q-5.69,0-9-3.05a10.92,10.92,0,0,1-3.28-8.34c0-3.56,1.06-6.33,3.16-8.32s5.05-3,8.86-3a35.47,35.47,0,0,1,7.64,1.08v4.13h-2.06v-.29a6.19,6.19,0,0,0,0-.86,2.5,2.5,0,0,0-1.52-2.25,8.62,8.62,0,0,0-4.14-.83,7.28,7.28,0,0,0-6,2.8,11.74,11.74,0,0,0-2.24,7.49,10,10,0,0,0,2.62,7.34c1.74,1.76,4.16,2.63,7.3,2.63a15,15,0,0,0,6.52-1.65v1.4Z"/><path class="cls-2" d="M225.93,349.09l-5.28-18a14.3,14.3,0,0,0-1-2.71c-.14-.15-.74-.22-1.83-.24l-.35,0v-.89h8.86v.89H226a8.37,8.37,0,0,0-2,.15.64.64,0,0,0-.44.67,9.72,9.72,0,0,0,.49,2.16l3.66,12.57,5.7-16.17h1.17l5.7,16.62,4.28-13c.46-1.48.7-2.3.72-2.48,0-.34-.87-.5-2.61-.52h-.3v-.89h6.8v.89l-.3,0a5.43,5.43,0,0,0-2,.28,16.73,16.73,0,0,0-1.05,2.67l-6,18h-1.12l-5.84-16.63-5.73,16.63Zm-43.8-21.89L196.24,344V331c0-1.31-.12-2.1-.39-2.36a4.72,4.72,0,0,0-2.41-.5l-.3,0v-.89h7.71v.89l-.32,0a4.64,4.64,0,0,0-2.41.5,4.58,4.58,0,0,0-.36,2.36V349.1h-1.19L181.23,331v14a4.31,4.31,0,0,0,.36,2.36,5,5,0,0,0,2.43.5h.3v.91h-7.74v-.91h.3a4.84,4.84,0,0,0,2.42-.5,4.51,4.51,0,0,0,.37-2.36V331c0-1.32,0-2.71-1.28-2.71s-1.28,1.37-1.28,2.71v9a17.71,17.71,0,0,1-.38,4.41,5.94,5.94,0,0,1-1.54,2.62c-1.44,1.51-3.67,2.27-6.72,2.29q-9.16,0-9.19-8.63V331a4.15,4.15,0,0,0-.38-2.36,4.66,4.66,0,0,0-2.39-.5l-.32,0v-.89h9.74v.89l-.3,0a4.62,4.62,0,0,0-2.42.5c-.24.23-.35,1-.37,2.36v9.25a29.6,29.6,0,0,0,.2,4.37,4.29,4.29,0,0,0,1,1.95,6.1,6.1,0,0,0,4.85,1.83,7.08,7.08,0,0,0,4.85-1.6,4.31,4.31,0,0,0,1.32-2,18,18,0,0,0,.32-3.91V331c0-1.31-.12-2.1-.39-2.36a4.69,4.69,0,0,0-2.41-.5l-.3,0v-.89Zm20.54-16.39-27.85,8.41h-3l30.88-9.31,30.88,9.31h-3Zm36.78,8.41-36.78-11.13L165.9,319.22h-7.26l44-13.25,44,13.25Zm10.14,2.19H155.76l-2.57-2.09,49.48-14.86,49.49,14.86-2.57,2.09ZM242.71,347a1.84,1.84,0,1,1,1.84,1.9A1.84,1.84,0,0,1,242.71,347Zm1.84,2.28a2.28,2.28,0,1,0-2.3-2.28,2.28,2.28,0,0,0,2.3,2.28Zm.79-1.85a.68.68,0,0,1-.71.57.93.93,0,0,1-.88-1,.86.86,0,0,1,.86-1,.69.69,0,0,1,.73.54h.4a1.07,1.07,0,0,0-1.13-.94,1.28,1.28,0,0,0-1.32,1.39,1.32,1.32,0,0,0,1.34,1.39,1.13,1.13,0,0,0,1.12-1Z"/><path class="cls-2" d="M234.94,200.46a24.22,24.22,0,0,1-.68,3.36,31.19,31.19,0,0,1-1.09,3.27c-.48,1.09-1.18,1.83-2,1.76-1.24-.09-3.74-2.43-4.19-2.91s-4-4.36-4.71-5.13c0-.13.1-.26.13-.42,1-.28,6.08-1.92,6.63-2.08s4-.93,5.09-.41c.74.35,1,1.34.84,2.56Zm-6.86,15.44a22.77,22.77,0,0,1-2.31,2.56,26.36,26.36,0,0,1-2.56,2.31c-1,.7-2,1-2.63.51-1-.7-2-4-2.18-4.61s-1.31-5.83-1.5-6.79c.1-.1.19-.2.29-.32l6.79,1.53c.64.16,3.91,1.16,4.64,2.18.45.67.13,1.64-.54,2.63Zm-11.73,1.47c-.09.26,0,.45-.51.77s-.67.13-1,.07a55.81,55.81,0,0,1-5.35-3.72,20.74,20.74,0,0,0,6.28-3.62,53.53,53.53,0,0,1,.54,6.5Zm-1.95,8.49a21.63,21.63,0,0,1-3.27,1.06,25.25,25.25,0,0,1-3.36.7c-1.19.13-2.21-.09-2.57-.83-.51-1.15.26-4.48.45-5.12s1.77-5.64,2-6.64l.45-.09c.74.67,4.71,4.32,5.1,4.71s2.82,2.94,2.91,4.19c.1.81-.67,1.51-1.76,2Zm-10.89-4.61c-.19.19-.19.42-.84.42s-.64-.23-.86-.42a58.21,58.21,0,0,1-2.76-5.9,21.38,21.38,0,0,0,3.62.32,21.75,21.75,0,0,0,3.62-.32,55.55,55.55,0,0,1-2.78,5.9Zm-3.4,5.54c-.35.74-1.34.93-2.53.84a21.78,21.78,0,0,1-3.36-.71,26,26,0,0,1-3.27-1.06c-1.12-.48-1.86-1.21-1.79-2,.12-1.24,2.46-3.74,2.91-4.19l5.13-4.71.41.1c.32,1,1.92,6.11,2.08,6.63s1,4,.42,5.12Zm-10.57-15.92a20.3,20.3,0,0,0,6.28,3.62,52.1,52.1,0,0,1-5.38,3.72.84.84,0,0,1-.93-.07c-.55-.32-.42-.51-.51-.77a53.53,53.53,0,0,1,.54-6.5Zm-2.6,5.8c-.16.61-1.18,3.91-2.21,4.61-.67.48-1.63.16-2.62-.51a26.68,26.68,0,0,1-2.57-2.31s-1.5-1.54-2.27-2.56-1-2-.54-2.63c.7-1,4-2,4.61-2.18s5.83-1.31,6.79-1.53l.32.32c-.22,1-1.38,6.24-1.51,6.79Zm-14.76-9.58a25.07,25.07,0,0,1-1.09-3.27s-.55-2.11-.71-3.36.13-2.21.87-2.57c1.12-.54,4.48.26,5.09.42s5.67,1.76,6.63,2.08c0,.16.1.29.13.42l-4.71,5.13c-.45.48-3,2.82-4.23,2.91-.8.06-1.47-.7-2-1.76Zm-1.8-16.85a28.08,28.08,0,0,1,.71-3.37,28.65,28.65,0,0,1,1.09-3.23c.48-1.12,1.18-1.86,2-1.8,1.25.1,3.78,2.47,4.23,2.92l4.71,5.13c0,.12-.1.28-.13.41-1,.32-6.08,1.92-6.63,2.08s-4,1-5.09.42c-.74-.35-1-1.34-.87-2.56Zm64.6,0a28.83,28.83,0,0,0-.7-3.37,31,31,0,0,0-1.09-3.23c-.48-1.12-1.19-1.86-2-1.8-1.25.1-3.78,2.47-4.23,2.92l-4.71,5.13c0,.12.1.28.13.41,1,.32,6.09,1.92,6.63,2.08s4,1,5.1.42c.73-.35,1-1.34.86-2.56ZM177.27,174.8a24.57,24.57,0,0,1,2.27-2.57,28.48,28.48,0,0,1,2.57-2.27c1-.74,1.95-1,2.62-.54,1,.7,2.06,4,2.22,4.61s1.28,5.83,1.5,6.79a3.22,3.22,0,0,1-.32.32l-6.79-1.54c-.61-.13-3.91-1.15-4.61-2.18-.48-.67-.16-1.63.54-2.62ZM189,173.32c.09-.25,0-.44.51-.77s.67-.12.93-.06c.48.06,4.13,2.79,5.38,3.72a20.3,20.3,0,0,0-6.28,3.62,53.67,53.67,0,0,1-.54-6.51Zm1.95-8.49a22.39,22.39,0,0,1,3.27-1.05,26.4,26.4,0,0,1,3.36-.71c1.19-.13,2.18.1,2.53.87.55,1.12-.22,4.45-.41,5.09s-1.77,5.64-2.09,6.63l-.41.1c-.74-.67-4.71-4.29-5.13-4.71s-2.79-3-2.91-4.2c-.07-.8.7-1.5,1.79-2Zm10.86,4.62c.22-.2.22-.42.86-.42s.65.22.84.42a55.23,55.23,0,0,1,2.78,5.89,22.87,22.87,0,0,0-3.62-.32,22.46,22.46,0,0,0-3.62.32,57.87,57.87,0,0,1,2.76-5.89Zm3.4-5.51c.35-.77,1.37-1,2.56-.87a21.78,21.78,0,0,1,3.36.71,29.76,29.76,0,0,1,3.27,1.05c1.09.48,1.86,1.22,1.76,2-.09,1.25-2.43,3.78-2.91,4.2s-4.36,4-5.1,4.71l-.45-.1c-.28-1-1.89-6.09-2-6.63s-1-4-.44-5.09Zm10.6,15.89a20.74,20.74,0,0,0-6.28-3.62,54,54,0,0,1,5.35-3.72c.29-.06.42-.26,1,.06s.42.52.51.77a53.67,53.67,0,0,1-.54,6.51Zm2.37,2.37a60.89,60.89,0,0,1,6.5-.55c.26.1.48,0,.8.55s.1.67,0,.93a53.4,53.4,0,0,1-3.72,5.35,20.31,20.31,0,0,0-3.62-6.28Zm4.49,9.51a62.45,62.45,0,0,1,5.92,2.79c.16.22.42.22.42.86s-.26.61-.42.84a60.35,60.35,0,0,1-5.92,2.78,20.81,20.81,0,0,0,0-7.27Zm-.87,10.51a52.27,52.27,0,0,1,3.72,5.35c.06.26.28.38,0,1s-.54.42-.8.51a60.64,60.64,0,0,1-6.5-.54,20.42,20.42,0,0,0,3.62-6.28Zm-34.63,6.28a61.87,61.87,0,0,1-6.5.54c-.26-.09-.48,0-.8-.54s-.1-.67-.07-.93a58.94,58.94,0,0,1,3.75-5.35A19.81,19.81,0,0,0,187.17,208.5ZM182.68,199a53.42,53.42,0,0,1-5.92-2.78c-.16-.23-.42-.23-.42-.84s.26-.64.42-.86a55,55,0,0,1,5.92-2.79,19.54,19.54,0,0,0-.35,3.65,19.83,19.83,0,0,0,.35,3.62Zm.87-10.5a60.38,60.38,0,0,1-3.75-5.35c0-.26-.26-.39.07-.93s.54-.45.8-.55a62.37,62.37,0,0,1,6.5.55A19.81,19.81,0,0,0,183.55,188.48Zm19.12,25.79a18.92,18.92,0,1,1,18.94-18.91A18.93,18.93,0,0,1,202.67,214.27ZM218.4,174c.16-.61,1.16-3.91,2.18-4.62.68-.48,1.67-.16,2.63.55a20.12,20.12,0,0,1,2.56,2.27,31.72,31.72,0,0,1,2.31,2.57c.7,1,1,1.95.54,2.62-.73,1-4,2.05-4.64,2.18l-6.79,1.54c-.1-.1-.2-.22-.29-.32C217.09,179.86,218.28,174.57,218.4,174Zm19.93,18.77c-2.53-2.85-4.26-9.32-3.49-13.07.38-1.89,2.14-2.72,4.52-4.1l-1.29-2.18c-2.37,1.35-4,2.47-5.79,1.86-3.63-1.22-8.37-5.93-9.55-9.58-.61-1.83.48-3.43,1.86-5.8l-2.21-1.28c-1.38,2.4-2.21,4.13-4.07,4.52-3.75.8-10.22-1-13.11-3.49-1.41-1.29-1.24-3.21-1.24-6h-2.57c0,2.75.16,4.67-1.28,6-2.85,2.53-9.32,4.29-13.07,3.49-1.89-.39-2.72-2.12-4.07-4.49l-2.21,1.25c1.38,2.37,2.47,4,1.86,5.8-1.22,3.65-5.93,8.36-9.58,9.58-1.79.61-3.4-.51-5.77-1.89L166,175.63c2.37,1.38,4.14,2.21,4.52,4.1.77,3.75-1,10.19-3.52,13.07-1.25,1.44-3.21,1.28-5.93,1.28v2.53c2.72,0,4.68-.16,5.93,1.28,2.56,2.89,4.29,9.33,3.52,13.08-.38,1.88-2.15,2.72-4.52,4.1l1.28,2.21c2.37-1.38,4-2.5,5.77-1.89,3.65,1.21,8.36,6,9.58,9.58.61,1.82-.48,3.42-1.86,5.79L183,232c1.35-2.37,2.18-4.13,4.07-4.51,3.75-.77,10.22,1,13.07,3.49,1.44,1.28,1.28,3.2,1.28,6H204c0-2.76-.17-4.68,1.24-6,2.89-2.53,9.36-4.26,13.11-3.49,1.86.38,2.69,2.14,4.07,4.51l2.21-1.28c-1.38-2.37-2.47-4-1.89-5.79,1.21-3.63,6-8.37,9.58-9.58,1.82-.61,3.42.51,5.79,1.89l1.29-2.21c-2.38-1.38-4.14-2.22-4.52-4.1-.77-3.75,1-10.19,3.49-13.08,1.28-1.44,3.24-1.28,6-1.28v-2.53c-2.72,0-4.68.16-6-1.28Zm-24.41-2v-1.19c0-.74.29-1.31,1.12-1.31h1.44v-2.53c-.29,0-1.28,0-2.18,0-2.14,0-3.49.93-3.49,3.4v1.67h-.45l-5.83,0c-3.62,0-4.8,1.5-4.8,3.27,0,4.38,7.17,3.61,7.17,5.25,0,.45-.45,1-2.05,1l-6,0v-5.86c0-2.63-1.82-3.91-4.38-3.88a3.76,3.76,0,0,0-3.59,2h-.07v-1.73h-3V202.7H191v-6.82a2.44,2.44,0,0,1,2.47-2.76,2.06,2.06,0,0,1,2.34,2.34v7.24h9c2.43,0,5.12-.77,5.12-3.46,0-3.49-7.24-3.33-7.24-4.93,0-.52.39-1.25,2.08-1.25h6.09v9.67h3.11v-9.67h2.63v-2.24Z"/><path class="cls-3" d="M164.47,72.9l-3.84-25.61h5.23l.92,9.49c.31,3.29.72,7,.9,10.26h.19c.17-3.26.58-6.76.86-10.23l.8-9.52h5.14L170.89,72.9Z"/><path class="cls-3" d="M187.21,66.8l-.63,6.1h-5l3.62-25.61h7.35l3.71,25.61H191.1l-.7-6.1ZM190,62.46c-.37-3.28-.88-8.26-1.12-10.71h-.19c-.09,1.78-.7,7.54-1,10.71Z"/><path class="cls-3" d="M209.73,65v1.77c0,1.68.41,2.47,1.54,2.47s1.4-1.16,1.4-2.37c0-2.42-.46-3.12-3.07-5.31-2.89-2.44-4.37-3.89-4.37-7.66s1.21-7,6.06-7c5.15,0,5.91,3.52,5.91,6.45V54.8h-4.65V53.27c0-1.56-.25-2.33-1.22-2.33s-1.21.79-1.21,2.24.28,2.3,2.4,4c3.77,3,5.12,4.62,5.12,8.84,0,4-1.37,7.31-6.46,7.31-4.88,0-6.28-2.94-6.28-6.74V65Z"/><path class="cls-3" d="M239.66,64.54v1.39c0,3.23-.6,7.35-6.47,7.35-4.34,0-6.22-2.31-6.22-7V53.71c0-4.46,2.22-6.8,6.32-6.8,5.41,0,6.29,3.56,6.29,6.91v1.61h-5V53.24c0-1.41-.3-2.12-1.33-2.12s-1.34.67-1.34,2.12V66.78c0,1.37.23,2.3,1.34,2.3s1.38-.78,1.38-2.41V64.54Z"/><path class="cls-3" d="M159.2,87.25l-1.28-7.33h.85l.48,3.29c.16,1,.37,2.27.44,3h0c.06-.73.29-2,.43-3l.5-3.32h.83l-1.28,7.33Z"/><path class="cls-3" d="M162.92,82.12v5.13h-.54V82.12Z"/><path class="cls-3" d="M164.54,84.86v2.39H164V82.12h.9c.77,0,1.15.34,1.15,1.18v.24c0,.69-.25,1-.53,1.08.33.12.48.36.48,1a13,13,0,0,0,0,1.58h-.53a11.08,11.08,0,0,1-.06-1.54c0-.66-.09-.85-.6-.85Zm0-.47h.33c.49,0,.62-.28.62-.83v-.22c0-.47-.13-.75-.65-.75h-.3Z"/><path class="cls-3" d="M167.43,82.63h-.83v-.51h2.2v.51H168v4.62h-.54Z"/><path class="cls-3" d="M170,82.12v4c0,.42.15.71.53.71s.53-.27.53-.71v-4h.55v4c0,.8-.36,1.23-1.09,1.23s-1.06-.4-1.06-1.21v-4Z"/><path class="cls-3" d="M173.09,85.61l-.24,1.64h-.56l.85-5.13h.77l.88,5.13h-.57L174,85.61Zm.79-.5c-.17-1.13-.3-2-.35-2.48h0c0,.39-.21,1.55-.34,2.48Z"/><path class="cls-3" d="M175.53,82.12h.55v4.64h1.29l-.06.49h-1.78Z"/><path class="cls-3" d="M180.83,84.91l-.34,2.34h-.79l1.2-7.33H182l1.25,7.33h-.81l-.38-2.34Zm1.14-.72c-.26-1.61-.44-2.86-.51-3.55h0c0,.57-.29,2.22-.49,3.55Z"/><path class="cls-3" d="M186.16,85.78V86c0,.65-.12,1.37-1,1.37s-1-.63-1-1.38V83.33c0-.82.35-1.27,1-1.27.86,0,1,.61,1,1.28v.2h-.56V83.3c0-.41-.06-.75-.46-.75s-.49.31-.49.76V86c0,.52.12.85.5.85s.47-.34.47-.83v-.21Z"/><path class="cls-3" d="M189,85.78V86c0,.65-.12,1.37-1,1.37s-1-.63-1-1.38V83.33c0-.82.35-1.27,1-1.27.86,0,1,.61,1,1.28v.2h-.56V83.3c0-.41-.06-.75-.46-.75s-.49.31-.49.76V86c0,.52.12.85.5.85s.47-.34.47-.83v-.21Z"/><path class="cls-3" d="M191.56,84.77h-1.15v2h1.3l-.07.5h-1.78V82.12h1.76v.51h-1.21v1.64h1.15Z"/><path class="cls-3" d="M192.87,85.81v.29c0,.49.17.75.53.75s.51-.27.51-.83a1.31,1.31,0,0,0-.67-1.26,1.56,1.56,0,0,1-.83-1.44c0-.65.19-1.27,1-1.27s1,.51,1,1.16v.24h-.54v-.22c0-.43-.08-.7-.43-.7s-.44.31-.44.71a1,1,0,0,0,.56,1,1.76,1.76,0,0,1,.94,1.69c0,.72-.21,1.38-1.07,1.38s-1.06-.54-1.06-1.22v-.29Z"/><path class="cls-3" d="M195.73,85.81v.29c0,.49.17.75.53.75s.51-.27.51-.83a1.31,1.31,0,0,0-.67-1.26,1.56,1.56,0,0,1-.83-1.44c0-.65.2-1.27,1-1.27s1,.51,1,1.16v.24h-.55v-.22c0-.43-.08-.7-.43-.7s-.44.31-.44.71a1,1,0,0,0,.56,1,1.74,1.74,0,0,1,.94,1.69c0,.72-.21,1.38-1.07,1.38s-1.06-.54-1.06-1.22v-.29Z"/><path class="cls-3" d="M200.52,82.63h-.83v-.51h2.2v.51h-.82v4.62h-.55Z"/><path class="cls-3" d="M204.66,83.38V86c0,.9-.37,1.35-1.13,1.35s-1.09-.51-1.09-1.35V83.38c0-.87.4-1.32,1.12-1.32S204.66,82.57,204.66,83.38Zm-1.66,0V86c0,.57.21.8.55.8s.55-.22.55-.83V83.36c0-.55-.18-.81-.55-.81S203,82.8,203,83.36Z"/><path class="cls-3" d="M208.09,85.19v.42c0,.69.23,1.06.75,1.06s.73-.38.73-1.18a1.86,1.86,0,0,0-1-1.79,2.26,2.26,0,0,1-1.18-2.07c0-.93.28-1.82,1.43-1.81s1.38.73,1.38,1.66v.34h-.78V81.5c0-.61-.12-1-.62-1s-.63.44-.63,1,.13.94.81,1.44a2.52,2.52,0,0,1,1.34,2.42c0,1-.3,2-1.54,2s-1.51-.78-1.51-1.74v-.42Z"/><path class="cls-3" d="M211.84,82.63H211v-.51h2.2v.51h-.82v4.62h-.55Z"/><path class="cls-3" d="M215.59,84.77h-1.15v2h1.31l-.08.5H213.9V82.12h1.76v.51h-1.22v1.64h1.15Z"/><path class="cls-3" d="M219,85.11c0-.94,0-2,0-2.5h0c-.12.86-.52,3.12-.79,4.64h-.53c-.21-1.32-.62-3.73-.74-4.64h0c0,.59,0,1.75,0,2.63v2h-.51V82.12h.81c.28,1.52.62,3.4.69,4h0c.08-.64.48-2.62.76-4h.79v5.13H219Z"/><path class="cls-3" d="M225.51,85.15v.25c0,.93-.17,1.95-1.49,1.95s-1.49-.9-1.49-2V81.64c0-1.17.5-1.82,1.5-1.82,1.23,0,1.45.88,1.45,1.84v.28h-.8V81.6c0-.58-.09-1.06-.67-1.06s-.68.43-.68,1.08v3.8c0,.74.16,1.22.71,1.22s.67-.49.67-1.18v-.31Z"/><path class="cls-3" d="M227,85.61l-.24,1.64h-.56l.85-5.13h.77l.88,5.13h-.57l-.26-1.64Zm.8-.5c-.18-1.13-.31-2-.36-2.48h0c0,.39-.21,1.55-.34,2.48Z"/><path class="cls-3" d="M230,84.86v2.39h-.55V82.12h.9c.77,0,1.15.34,1.15,1.18v.24c0,.69-.25,1-.52,1.08.32.12.47.36.47,1a15.45,15.45,0,0,0,.05,1.58H231a12.92,12.92,0,0,1-.05-1.54c0-.66-.09-.85-.6-.85Zm0-.47h.33c.49,0,.62-.28.62-.83v-.22c0-.47-.13-.75-.64-.75H230Z"/><path class="cls-3" d="M234.15,84.77H233v2h1.31l-.08.5h-1.77V82.12h1.76v.51H233v1.64h1.15Z"/><path class="cls-3" d="M236.74,84.77h-1.15v2h1.3l-.07.5H235V82.12h1.76v.51h-1.21v1.64h1.15Z"/><path class="cls-3" d="M238.18,84.86v2.39h-.55V82.12h.9c.77,0,1.15.34,1.15,1.18v.24c0,.69-.25,1-.52,1.08.32.12.47.36.47,1a13,13,0,0,0,.05,1.58h-.53a12.92,12.92,0,0,1-.05-1.54c0-.66-.1-.85-.6-.85Zm0-.47h.33c.49,0,.62-.28.62-.83v-.22c0-.47-.13-.75-.64-.75h-.31Z"/><path class="cls-3" d="M241,85.81v.29c0,.49.17.75.52.75s.52-.27.52-.83a1.31,1.31,0,0,0-.67-1.26,1.56,1.56,0,0,1-.83-1.44c0-.65.19-1.27,1-1.27s1,.51,1,1.16v.24H242v-.22c0-.43-.08-.7-.43-.7s-.45.31-.45.71.1.66.57,1a1.76,1.76,0,0,1,.94,1.69c0,.72-.21,1.38-1.07,1.38s-1.07-.54-1.07-1.22v-.29Z"/><path class="cls-2" d="M283.77,89.55H378.2v1.82H283.77Zm2.87-30.26V57.47h88.68v1.82Zm0,28.14V85.92h88.68v1.51Zm60.1-5.55a17.42,17.42,0,0,1-7.82,1.7c-3.8,0-6.79-1-9-3.06a10.89,10.89,0,0,1-3.28-8.33c0-3.56,1.05-6.34,3.16-8.32s5.05-3,8.86-3A35.47,35.47,0,0,1,346.31,62V66.1h-2.06v-.29a6.19,6.19,0,0,0,0-.86,2.49,2.49,0,0,0-1.52-2.25,8.51,8.51,0,0,0-4.14-.83,7.32,7.32,0,0,0-6,2.8,11.78,11.78,0,0,0-2.23,7.49,10,10,0,0,0,2.62,7.34,9.82,9.82,0,0,0,7.3,2.63,15,15,0,0,0,6.52-1.65v1.4Z"/><path class="cls-2" d="M354.24,83.31,349,65.3a14.15,14.15,0,0,0-1-2.72,4,4,0,0,0-1.83-.23l-.35,0v-.89h8.86v.89h-.32a8.37,8.37,0,0,0-2.05.15c-.29.08-.42.3-.44.67a9.72,9.72,0,0,0,.49,2.16L356,77.87l5.7-16.18h1.17l5.7,16.63,4.28-13c.46-1.47.7-2.29.72-2.48s-.88-.49-2.61-.51h-.3v-.89h6.8v.89l-.3,0a5.43,5.43,0,0,0-2,.28,15.8,15.8,0,0,0-1.05,2.67l-6.06,18H367l-5.84-16.63-5.73,16.63Zm-43.8-21.88,14.1,16.77v-13c0-1.31-.11-2.1-.38-2.36a4.72,4.72,0,0,0-2.41-.5l-.3,0v-.89h7.71v.89l-.32,0a4.43,4.43,0,0,0-2.41.5,4.53,4.53,0,0,0-.36,2.36V83.33h-1.19l-15.35-18.1v14a4.3,4.3,0,0,0,.37,2.37,5.3,5.3,0,0,0,2.43.5h.3V83h-7.74v-.91h.3a4.84,4.84,0,0,0,2.42-.5,4.56,4.56,0,0,0,.37-2.37v-14c0-1.33,0-2.71-1.28-2.71s-1.28,1.37-1.28,2.71v9.05a17.71,17.71,0,0,1-.38,4.41,5.91,5.91,0,0,1-1.54,2.61c-1.44,1.52-3.68,2.28-6.72,2.3-6.12,0-9.17-2.88-9.19-8.63V65.21c0-1.31-.12-2.1-.39-2.36a4.59,4.59,0,0,0-2.39-.5l-.31,0v-.89h9.74v.89l-.3,0a4.42,4.42,0,0,0-2.42.5c-.24.23-.35,1-.37,2.36v9.24a29.77,29.77,0,0,0,.2,4.38,4.26,4.26,0,0,0,1,1.94,6.07,6.07,0,0,0,4.85,1.84,7.08,7.08,0,0,0,4.85-1.6,4.31,4.31,0,0,0,1.32-2,18,18,0,0,0,.32-3.92V65.21c0-1.31-.12-2.1-.39-2.36a4.72,4.72,0,0,0-2.41-.5l-.3,0v-.89ZM331,45l-27.85,8.41h-3L331,44.13l30.88,9.32h-3Zm36.78,8.41L331,42.31,294.21,53.45H287l44-13.26,44,13.26Zm10.14,2.18H284.07l-2.57-2.08L331,38.68l49.49,14.87-2.57,2.08ZM371,81.24a1.84,1.84,0,1,1,1.84,1.9A1.83,1.83,0,0,1,371,81.24Zm1.84,2.28a2.28,2.28,0,1,0-2.3-2.28,2.28,2.28,0,0,0,2.3,2.28Zm.79-1.86a.68.68,0,0,1-.71.57.92.92,0,0,1-.88-1,.87.87,0,0,1,.86-1,.7.7,0,0,1,.73.55h.4a1.07,1.07,0,0,0-1.13-.94,1.28,1.28,0,0,0-1.32,1.38,1.32,1.32,0,0,0,1.34,1.4,1.13,1.13,0,0,0,1.12-1Z"/><path class="cls-2" d="M363.24,331a23.23,23.23,0,0,1-.67,3.36,30.41,30.41,0,0,1-1.09,3.27c-.48,1.09-1.18,1.83-2,1.76-1.25-.09-3.75-2.43-4.19-2.91s-4-4.36-4.71-5.13c0-.13.09-.25.13-.42,1-.28,6.08-1.92,6.63-2.08s4-.93,5.09-.41c.74.35,1,1.34.83,2.56Zm-6.85,15.44a22.77,22.77,0,0,1-2.31,2.56,26.36,26.36,0,0,1-2.56,2.31c-1,.7-1.95,1-2.63.51-1-.7-2-4-2.18-4.61s-1.31-5.83-1.5-6.79c.09-.1.19-.19.29-.32l6.79,1.53c.64.17,3.91,1.16,4.64,2.18.45.68.13,1.64-.54,2.63Zm-11.73,1.47c-.09.26,0,.45-.51.77s-.67.13-1,.07a55.81,55.81,0,0,1-5.35-3.72,20.74,20.74,0,0,0,6.28-3.62,53.53,53.53,0,0,1,.54,6.5Zm-2,8.49a21.63,21.63,0,0,1-3.27,1.06,26.4,26.4,0,0,1-3.36.71c-1.19.12-2.21-.1-2.57-.84-.51-1.15.26-4.48.45-5.12s1.76-5.64,2.05-6.64l.45-.09c.74.67,4.71,4.32,5.1,4.71s2.81,2.95,2.91,4.19c.1.81-.67,1.51-1.76,2Zm-10.89-4.61c-.2.19-.2.42-.84.42s-.64-.23-.86-.42a58.93,58.93,0,0,1-2.76-5.89,22.36,22.36,0,0,0,3.62.32,22.87,22.87,0,0,0,3.62-.32,56.2,56.2,0,0,1-2.78,5.89Zm-3.4,5.54c-.35.74-1.34.93-2.53.84a21.78,21.78,0,0,1-3.36-.71,26,26,0,0,1-3.27-1.06c-1.12-.48-1.86-1.21-1.8-2,.13-1.25,2.47-3.75,2.92-4.2l5.13-4.71.41.1c.32,1,1.92,6.11,2.08,6.63s1,4,.42,5.12Zm-10.57-15.92a20.3,20.3,0,0,0,6.28,3.62,52.1,52.1,0,0,1-5.38,3.72.84.84,0,0,1-.93-.07c-.55-.32-.42-.51-.51-.77a51.56,51.56,0,0,1,.54-6.5Zm-2.6,5.8c-.16.61-1.18,3.91-2.21,4.61-.67.48-1.63.16-2.62-.51a26.68,26.68,0,0,1-2.57-2.31,33.54,33.54,0,0,1-2.27-2.56c-.71-1-1-1.95-.55-2.63.71-1,4-2,4.62-2.18l6.79-1.53.32.32c-.22,1-1.38,6.24-1.51,6.79Zm-14.76-9.58a24.57,24.57,0,0,1-1.09-3.27s-.55-2.11-.71-3.36.13-2.21.87-2.56c1.12-.55,4.48.25,5.09.41s5.67,1.76,6.63,2.08c0,.16.1.29.13.42l-4.71,5.13c-.45.48-3,2.82-4.23,2.91-.8.07-1.47-.7-2-1.76Zm-1.8-16.85a27.75,27.75,0,0,1,.71-3.36,28.56,28.56,0,0,1,1.09-3.24c.48-1.12,1.18-1.86,2-1.79,1.25.09,3.78,2.46,4.23,2.91l4.71,5.13c0,.13-.1.29-.13.41-1,.32-6.08,1.93-6.63,2.09s-4,1-5.09.41c-.74-.35-1-1.34-.87-2.56Zm64.6,0a28.49,28.49,0,0,0-.7-3.36,30.89,30.89,0,0,0-1.09-3.24c-.48-1.12-1.19-1.86-2-1.79-1.25.09-3.78,2.46-4.23,2.91l-4.71,5.13c0,.13.1.29.13.41,1,.32,6.09,1.93,6.63,2.09s4,1,5.1.41c.73-.35,1-1.34.86-2.56Zm-57.71-15.44a24.57,24.57,0,0,1,2.27-2.57,28.48,28.48,0,0,1,2.57-2.27c1-.74,1.95-1,2.62-.54,1,.7,2,4,2.21,4.61s1.29,5.83,1.51,6.79a2.42,2.42,0,0,1-.32.32l-6.79-1.54C309,310,305.74,309,305,308c-.49-.68-.17-1.64.54-2.63Zm11.72-1.48c.1-.25,0-.44.52-.76a.84.84,0,0,1,.93-.07,52.1,52.1,0,0,1,5.38,3.72,20.18,20.18,0,0,0-6.28,3.62,54,54,0,0,1-.55-6.51Zm2-8.49a22.39,22.39,0,0,1,3.27-1.05,26.4,26.4,0,0,1,3.36-.71c1.19-.12,2.18.1,2.53.87.55,1.12-.22,4.45-.41,5.09s-1.77,5.64-2.09,6.63l-.41.1c-.74-.67-4.71-4.29-5.13-4.71s-2.79-2.95-2.91-4.2c-.07-.8.7-1.5,1.79-2ZM330.12,300c.22-.19.22-.42.86-.42s.64.23.84.42a55.23,55.23,0,0,1,2.78,5.89,22.87,22.87,0,0,0-3.62-.32,22.36,22.36,0,0,0-3.62.32,57.87,57.87,0,0,1,2.76-5.89Zm3.39-5.51c.36-.77,1.38-1,2.57-.87a21.78,21.78,0,0,1,3.36.71,29.76,29.76,0,0,1,3.27,1.05c1.09.48,1.86,1.22,1.76,2-.09,1.25-2.43,3.78-2.91,4.2s-4.36,4-5.1,4.71l-.45-.1c-.28-1-1.89-6.08-2.05-6.63s-1-4-.45-5.09Zm10.61,15.89a20.74,20.74,0,0,0-6.28-3.62,55.81,55.81,0,0,1,5.35-3.72c.29-.06.42-.26,1,.07s.42.51.51.76a53.67,53.67,0,0,1-.54,6.51Zm2.37,2.37a60.89,60.89,0,0,1,6.5-.55c.26.1.48,0,.8.55s.1.67,0,.93a52.27,52.27,0,0,1-3.72,5.35,20.42,20.42,0,0,0-3.62-6.28Zm4.49,9.51A62.45,62.45,0,0,1,356.9,325c.16.22.42.22.42.86s-.26.61-.42.84a62.45,62.45,0,0,1-5.92,2.79,21.53,21.53,0,0,0,0-7.28Zm-.87,10.51a52.27,52.27,0,0,1,3.72,5.35c.06.26.28.38,0,1s-.54.42-.8.52a63.66,63.66,0,0,1-6.5-.55,20.42,20.42,0,0,0,3.62-6.28ZM315.48,339c-1.54.16-6.09.7-6.5.55s-.49,0-.81-.55-.09-.67-.06-.93a58.94,58.94,0,0,1,3.75-5.35A19.81,19.81,0,0,0,315.48,339ZM311,329.51a55,55,0,0,1-5.92-2.79c-.16-.23-.42-.23-.42-.84s.26-.64.42-.86a55,55,0,0,1,5.92-2.79,19.54,19.54,0,0,0-.35,3.65,20,20,0,0,0,.35,3.63Zm.87-10.51a58.94,58.94,0,0,1-3.75-5.35c0-.26-.26-.39.07-.93s.54-.45.8-.55a62.37,62.37,0,0,1,6.5.55A19.81,19.81,0,0,0,311.86,319ZM331,344.79a18.92,18.92,0,1,1,18.94-18.91A18.93,18.93,0,0,1,331,344.79Zm15.73-40.24c.16-.61,1.16-3.91,2.18-4.61.67-.48,1.67-.16,2.63.54a20.12,20.12,0,0,1,2.56,2.27,31.72,31.72,0,0,1,2.31,2.57c.7,1,1,1.95.54,2.62-.73,1-4,2.06-4.64,2.18l-6.79,1.54c-.1-.1-.2-.22-.29-.32C345.4,310.38,346.59,305.09,346.71,304.55Zm19.93,18.77c-2.53-2.85-4.26-9.32-3.49-13.07.38-1.89,2.14-2.72,4.51-4.1L366.38,304c-2.37,1.35-4,2.47-5.79,1.86-3.63-1.22-8.37-5.93-9.55-9.58-.61-1.82.48-3.43,1.86-5.8l-2.21-1.28c-1.38,2.4-2.22,4.13-4.07,4.52-3.75.8-10.22-1-13.11-3.49-1.41-1.28-1.25-3.21-1.25-6H329.7c0,2.75.16,4.67-1.28,6-2.85,2.53-9.32,4.29-13.07,3.49-1.89-.39-2.72-2.12-4.07-4.49l-2.21,1.25c1.38,2.37,2.47,4,1.86,5.8-1.22,3.65-5.93,8.36-9.58,9.58-1.79.61-3.4-.51-5.77-1.89l-1.28,2.21c2.37,1.38,4.14,2.21,4.52,4.1.77,3.75-1,10.19-3.52,13.07-1.25,1.44-3.21,1.28-5.93,1.28v2.53c2.72,0,4.68-.16,5.93,1.28,2.56,2.89,4.29,9.33,3.52,13.08-.39,1.89-2.15,2.72-4.52,4.1l1.28,2.21c2.37-1.38,4-2.5,5.77-1.89,3.65,1.21,8.36,6,9.58,9.58.61,1.82-.48,3.42-1.86,5.79l2.21,1.29c1.35-2.37,2.18-4.14,4.07-4.52,3.75-.77,10.22,1,13.07,3.49,1.44,1.28,1.28,3.2,1.28,6h2.56c0-2.76-.16-4.68,1.25-6,2.89-2.53,9.36-4.26,13.11-3.49,1.85.38,2.69,2.15,4.07,4.52l2.21-1.29c-1.38-2.37-2.47-4-1.89-5.79,1.21-3.62,5.95-8.37,9.58-9.58,1.82-.61,3.42.51,5.79,1.89l1.28-2.21c-2.37-1.38-4.13-2.21-4.51-4.1-.77-3.75,1-10.19,3.49-13.08,1.28-1.44,3.24-1.28,6-1.28V324.6c-2.72,0-4.68.16-6-1.28Zm-24.41-2v-1.19c0-.74.29-1.31,1.12-1.31h1.44v-2.53c-.29,0-1.28,0-2.18,0-2.14,0-3.49.93-3.49,3.4v1.67h-.45l-5.83,0c-3.62,0-4.8,1.5-4.8,3.27,0,4.38,7.17,3.62,7.17,5.25,0,.45-.45,1-2,1l-6,0V325c0-2.63-1.82-3.91-4.39-3.88a3.76,3.76,0,0,0-3.58,2h-.07v-1.73h-3v11.88h3.11V326.4a2.44,2.44,0,0,1,2.47-2.76A2.06,2.06,0,0,1,324.1,326v7.24h9c2.43,0,5.12-.77,5.12-3.46,0-3.49-7.24-3.33-7.24-4.93,0-.52.39-1.25,2.08-1.25h6.09v9.67h3.11v-9.67h2.62v-2.24Z"/><path class="cls-3" d="M292.78,202.41l-3.84-25.61h5.23l.92,9.48c.31,3.3.72,7,.89,10.27h.2c.17-3.26.58-6.76.86-10.23l.8-9.52H303l-3.78,25.61Z"/><path class="cls-3" d="M315.52,196.31l-.64,6.1h-5l3.62-25.61h7.35l3.7,25.61h-5.12l-.7-6.1Zm2.77-4.34c-.37-3.28-.88-8.26-1.12-10.71H317c-.09,1.78-.7,7.54-1,10.71Z"/><path class="cls-3" d="M338,194.52v1.77c0,1.68.42,2.47,1.55,2.47s1.4-1.16,1.4-2.37c0-2.42-.46-3.12-3.07-5.31-2.89-2.44-4.37-3.89-4.37-7.66s1.21-7,6.06-7c5.15,0,5.91,3.51,5.91,6.45v1.47h-4.65v-1.53c0-1.56-.25-2.33-1.23-2.33s-1.2.79-1.2,2.24.28,2.3,2.4,3.95c3.77,3,5.12,4.62,5.12,8.84,0,4-1.37,7.31-6.46,7.31-4.89,0-6.28-2.94-6.28-6.74v-1.53Z"/><path class="cls-3" d="M368,194.05v1.39c0,3.23-.59,7.35-6.46,7.35-4.34,0-6.22-2.31-6.22-7V183.22c0-4.46,2.22-6.8,6.32-6.8,5.41,0,6.29,3.56,6.29,6.91v1.61h-5v-2.19c0-1.41-.3-2.12-1.33-2.12s-1.34.67-1.34,2.12v13.54c0,1.37.23,2.3,1.34,2.3s1.38-.78,1.38-2.41v-2.13Z"/><path class="cls-3" d="M287.51,216.76l-1.28-7.33h.85l.48,3.29c.15,1,.37,2.27.44,3h0c.06-.73.29-2,.43-3l.5-3.31h.83l-1.28,7.33Z"/><path class="cls-3" d="M291.23,211.63v5.13h-.54v-5.13Z"/><path class="cls-3" d="M292.84,214.37v2.39h-.54v-5.13h.89c.78,0,1.15.33,1.15,1.18v.24c0,.69-.24,1-.52,1.08.33.12.48.36.48,1.05a13,13,0,0,0,.05,1.58h-.53a11.08,11.08,0,0,1-.06-1.54c0-.67-.09-.85-.6-.85Zm0-.47h.34c.49,0,.61-.28.61-.83v-.23c0-.46-.12-.74-.64-.74h-.31Z"/><path class="cls-3" d="M295.74,212.14h-.83v-.51h2.2v.51h-.83v4.62h-.54Z"/><path class="cls-3" d="M298.29,211.63v4c0,.42.15.71.53.71s.53-.27.53-.71v-4h.55v4c0,.8-.36,1.23-1.09,1.23s-1.07-.4-1.07-1.22v-4Z"/><path class="cls-3" d="M301.4,215.12l-.24,1.64h-.56l.84-5.13h.78l.88,5.13h-.57l-.27-1.64Zm.79-.5c-.18-1.13-.3-2-.35-2.48h0c0,.39-.2,1.55-.34,2.48Z"/><path class="cls-3" d="M303.84,211.63h.55v4.64h1.29l-.06.49h-1.78Z"/><path class="cls-3" d="M309.14,214.42l-.35,2.34H308l1.21-7.33h1.11l1.25,7.33h-.81l-.38-2.34Zm1.14-.72c-.26-1.61-.44-2.86-.51-3.55h0c0,.57-.29,2.22-.49,3.55Z"/><path class="cls-3" d="M314.47,215.29v.17c0,.65-.12,1.37-1,1.37s-1-.63-1-1.38v-2.61c0-.82.35-1.28,1-1.28.86,0,1,.62,1,1.29v.2h-.56v-.24c0-.41-.06-.75-.47-.75s-.48.31-.48.76v2.66c0,.52.12.85.5.85s.47-.34.47-.83v-.21Z"/><path class="cls-3" d="M317.34,215.29v.17c0,.65-.12,1.37-1,1.37s-1-.63-1-1.38v-2.61c0-.82.35-1.28,1-1.28.86,0,1,.62,1,1.29v.2h-.56v-.24c0-.41-.06-.75-.47-.75s-.48.31-.48.76v2.66c0,.52.12.85.5.85s.47-.34.47-.83v-.21Z"/><path class="cls-3" d="M319.87,214.28h-1.15v2H320l-.07.5h-1.78v-5.13h1.76v.51h-1.21v1.64h1.15Z"/><path class="cls-3" d="M321.18,215.32v.29c0,.49.17.74.53.74s.51-.26.51-.82a1.31,1.31,0,0,0-.67-1.26,1.57,1.57,0,0,1-.83-1.44c0-.65.19-1.27,1-1.27s1,.51,1,1.16V213h-.54v-.22c0-.43-.08-.7-.43-.7s-.45.31-.45.71.1.66.57,1a1.76,1.76,0,0,1,.94,1.69c0,.72-.21,1.38-1.07,1.38s-1.07-.54-1.07-1.22v-.29Z"/><path class="cls-3" d="M324,215.32v.29c0,.49.17.74.53.74s.51-.26.51-.82a1.31,1.31,0,0,0-.67-1.26,1.57,1.57,0,0,1-.83-1.44c0-.65.2-1.27,1-1.27s1,.51,1,1.16V213H325v-.22c0-.43-.08-.7-.43-.7s-.44.31-.44.71a1,1,0,0,0,.56,1,1.76,1.76,0,0,1,.94,1.69c0,.72-.21,1.38-1.07,1.38s-1.06-.54-1.06-1.22v-.29Z"/><path class="cls-3" d="M328.83,212.14H328v-.51h2.2v.51h-.82v4.62h-.55Z"/><path class="cls-3" d="M333,212.89v2.59c0,.9-.37,1.35-1.13,1.35s-1.09-.51-1.09-1.35v-2.59c0-.87.4-1.33,1.12-1.33S333,212.08,333,212.89Zm-1.66,0v2.66c0,.57.21.8.55.8s.55-.22.55-.83v-2.63c0-.55-.18-.81-.55-.81S331.31,212.31,331.31,212.87Z"/><path class="cls-3" d="M336.4,214.7v.42c0,.69.23,1.06.75,1.06s.73-.38.73-1.18a1.86,1.86,0,0,0-1-1.79,2.26,2.26,0,0,1-1.18-2.07c0-.93.28-1.82,1.43-1.81s1.37.73,1.37,1.66v.34h-.77V211c0-.61-.12-1-.62-1s-.63.44-.63,1,.13.94.81,1.44a2.51,2.51,0,0,1,1.33,2.42c0,1-.29,2-1.53,2s-1.51-.78-1.51-1.74v-.42Z"/><path class="cls-3" d="M340.15,212.14h-.83v-.51h2.2v.51h-.82v4.62h-.55Z"/><path class="cls-3" d="M343.9,214.28h-1.15v2h1.31l-.08.5H342.2v-5.13H344v.51h-1.22v1.64h1.15Z"/><path class="cls-3" d="M347.33,214.62c0-.94,0-2,0-2.5h0c-.13.86-.52,3.12-.79,4.64H346c-.21-1.32-.62-3.73-.74-4.64h0c0,.59.05,1.75.05,2.63v2h-.51v-5.13h.81c.28,1.52.62,3.4.69,4.05h0c.08-.64.48-2.62.76-4.05h.79v5.13h-.53Z"/><path class="cls-3" d="M353.82,214.66v.25c0,.93-.17,2-1.49,2s-1.49-.9-1.49-2v-3.73c0-1.17.5-1.82,1.5-1.82,1.22,0,1.45.88,1.45,1.84v.28H353v-.34c0-.58-.09-1.06-.67-1.06s-.68.43-.68,1.08v3.8c0,.74.16,1.22.71,1.22s.67-.5.67-1.19v-.3Z"/><path class="cls-3" d="M355.34,215.12l-.24,1.64h-.56l.85-5.13h.77l.88,5.13h-.57l-.26-1.64Zm.79-.5c-.17-1.13-.3-2-.35-2.48h0c0,.39-.21,1.55-.34,2.48Z"/><path class="cls-3" d="M358.33,214.37v2.39h-.55v-5.13h.9c.77,0,1.15.33,1.15,1.18v.24c0,.69-.25,1-.52,1.08.32.12.47.36.47,1.05a15.45,15.45,0,0,0,.05,1.58h-.53a12.92,12.92,0,0,1-.05-1.54c0-.67-.1-.85-.6-.85Zm0-.47h.33c.49,0,.62-.28.62-.83v-.23c0-.46-.13-.74-.64-.74h-.31Z"/><path class="cls-3" d="M362.46,214.28h-1.15v2h1.31l-.08.5h-1.77v-5.13h1.76v.51h-1.22v1.64h1.15Z"/><path class="cls-3" d="M365.05,214.28H363.9v2h1.3l-.07.5h-1.78v-5.13h1.76v.51H363.9v1.64h1.15Z"/><path class="cls-3" d="M366.49,214.37v2.39h-.55v-5.13h.9c.77,0,1.15.33,1.15,1.18v.24c0,.69-.25,1-.53,1.08.33.12.48.36.48,1.05a13,13,0,0,0,.05,1.58h-.53a11.11,11.11,0,0,1,0-1.54c0-.67-.1-.85-.61-.85Zm0-.47h.33c.49,0,.62-.28.62-.83v-.23c0-.46-.13-.74-.65-.74h-.3Z"/><path class="cls-3" d="M369.31,215.32v.29c0,.49.16.74.52.74s.52-.26.52-.82a1.32,1.32,0,0,0-.68-1.26,1.58,1.58,0,0,1-.82-1.44c0-.65.19-1.27,1-1.27s1,.51,1,1.16V213h-.54v-.22c0-.43-.08-.7-.43-.7s-.45.31-.45.71.1.66.57,1a1.76,1.76,0,0,1,.94,1.69c0,.72-.21,1.38-1.08,1.38s-1.06-.54-1.06-1.22v-.29Z"/></g></svg>